<svg width="40" height="40" viewBox="0 0 40 40" fill="none" xmlns="http://www.w3.org/2000/svg">
<rect width="40" height="40" rx="20" fill="#B75FDC"/>
<g clip-path="url(#clip0_2017_230)">
<path d="M27.5 25.8333H29.1667V27.5H10.8334V25.8333H12.5V13.3333C12.5 13.1123 12.5878 12.9004 12.7441 12.7441C12.9004 12.5878 13.1124 12.5 13.3334 12.5H21.6667C21.8877 12.5 22.0997 12.5878 22.256 12.7441C22.4122 12.9004 22.5 13.1123 22.5 13.3333V25.8333H24.1667V17.5H26.6667C26.8877 17.5 27.0997 17.5878 27.256 17.7441C27.4122 17.9004 27.5 18.1123 27.5 18.3333V25.8333ZM15.8334 19.1667V20.8333H19.1667V19.1667H15.8334ZM15.8334 15.8333V17.5H19.1667V15.8333H15.8334Z" fill="white"/>
</g>
<defs>
<clipPath id="clip0_2017_230">
<rect width="20" height="20" fill="white" transform="translate(10 10)"/>
</clipPath>
</defs>
</svg>
