<svg width="40" height="40" viewBox="0 0 40 40" fill="none" xmlns="http://www.w3.org/2000/svg">
<rect width="40" height="40" rx="20" fill="#00ACE9"/>
<g clip-path="url(#clip0_2017_2069)">
<path d="M11.6666 28.3334C11.6666 26.5653 12.369 24.8696 13.6192 23.6193C14.8695 22.3691 16.5652 21.6667 18.3333 21.6667C20.1014 21.6667 21.7971 22.3691 23.0473 23.6193C24.2976 24.8696 25 26.5653 25 28.3334H11.6666ZM18.3333 20.8334C15.5708 20.8334 13.3333 18.5959 13.3333 15.8334C13.3333 13.0709 15.5708 10.8334 18.3333 10.8334C21.0958 10.8334 23.3333 13.0709 23.3333 15.8334C23.3333 18.5959 21.0958 20.8334 18.3333 20.8334ZM24.4691 22.6942C25.7438 23.0218 26.8827 23.7432 27.7236 24.7557C28.5644 25.7682 29.0645 27.0202 29.1525 28.3334H26.6666C26.6666 26.1584 25.8333 24.1784 24.4691 22.6942ZM22.7833 20.7975C23.4816 20.1729 24.0401 19.4078 24.4221 18.5523C24.8041 17.6968 25.001 16.7703 25 15.8334C25.0017 14.6946 24.7104 13.5745 24.1541 12.5809C25.098 12.7705 25.9471 13.2812 26.557 14.026C27.167 14.7709 27.5001 15.704 27.5 16.6667C27.5002 17.2604 27.3735 17.8473 27.1284 18.3881C26.8833 18.9289 26.5254 19.411 26.0788 19.8022C25.6321 20.1933 25.107 20.4845 24.5387 20.6562C23.9703 20.8278 23.3718 20.876 22.7833 20.7975Z" fill="white"/>
</g>
<defs>
<clipPath id="clip0_2017_2069">
<rect width="20" height="20" fill="white" transform="translate(10 10)"/>
</clipPath>
</defs>
</svg>
