<svg width="40" height="40" viewBox="0 0 40 40" fill="none" xmlns="http://www.w3.org/2000/svg">
<rect width="40" height="40" rx="20" fill="#FBAF2A"/>
<g clip-path="url(#clip0_2017_273)">
<path d="M24.1667 22.7042V28.4309C24.1667 28.5046 24.1472 28.577 24.1101 28.6407C24.073 28.7044 24.0196 28.7571 23.9555 28.7935C23.8913 28.8298 23.8187 28.8485 23.745 28.8476C23.6713 28.8467 23.5991 28.8263 23.5359 28.7884L20 26.6667L16.4642 28.7884C16.4009 28.8263 16.3287 28.8468 16.2549 28.8476C16.1811 28.8485 16.1084 28.8297 16.0442 28.7933C15.9801 28.7568 15.9267 28.704 15.8897 28.6402C15.8526 28.5764 15.8332 28.5039 15.8334 28.4301V22.7051C14.7552 21.8418 13.9717 20.665 13.5913 19.3372C13.2108 18.0094 13.2522 16.5962 13.7096 15.293C14.1671 13.9897 15.018 12.8607 16.1449 12.062C17.2717 11.2632 18.6188 10.8342 20 10.8342C21.3813 10.8342 22.7284 11.2632 23.8552 12.062C24.9821 12.8607 25.833 13.9897 26.2905 15.293C26.7479 16.5962 26.7893 18.0094 26.4088 19.3372C26.0284 20.665 25.2449 21.8418 24.1667 22.7051V22.7042ZM20 22.5001C21.3261 22.5001 22.5979 21.9733 23.5356 21.0356C24.4733 20.0979 25 18.8261 25 17.5001C25 16.174 24.4733 14.9022 23.5356 13.9645C22.5979 13.0268 21.3261 12.5001 20 12.5001C18.674 12.5001 17.4022 13.0268 16.4645 13.9645C15.5268 14.9022 15 16.174 15 17.5001C15 18.8261 15.5268 20.0979 16.4645 21.0356C17.4022 21.9733 18.674 22.5001 20 22.5001ZM20 20.8334C19.116 20.8334 18.2681 20.4822 17.643 19.8571C17.0179 19.232 16.6667 18.3841 16.6667 17.5001C16.6667 16.616 17.0179 15.7682 17.643 15.143C18.2681 14.5179 19.116 14.1667 20 14.1667C20.8841 14.1667 21.7319 14.5179 22.3571 15.143C22.9822 15.7682 23.3334 16.616 23.3334 17.5001C23.3334 18.3841 22.9822 19.232 22.3571 19.8571C21.7319 20.4822 20.8841 20.8334 20 20.8334Z" fill="white"/>
</g>
<defs>
<clipPath id="clip0_2017_273">
<rect width="20" height="20" fill="white" transform="translate(10 10)"/>
</clipPath>
</defs>
</svg>
