<svg width="18" height="18" viewBox="0 0 18 18" fill="none" xmlns="http://www.w3.org/2000/svg">
<path d="M11.031 11.91L8.12098 8.99999L11.031 6.08999C11.1004 6.02056 11.1555 5.93812 11.1931 5.8474C11.2307 5.75668 11.25 5.65944 11.25 5.56124C11.25 5.46304 11.2307 5.36581 11.1931 5.27508C11.1555 5.18436 11.1004 5.10193 11.031 5.03249C10.9615 4.96306 10.8791 4.90798 10.7884 4.8704C10.6977 4.83282 10.6004 4.81348 10.5022 4.81348C10.404 4.81348 10.3068 4.83282 10.2161 4.8704C10.1254 4.90798 10.0429 4.96306 9.97348 5.03249L6.53098 8.47499C6.23848 8.76749 6.23848 9.23999 6.53098 9.53249L9.97348 12.975C10.0429 13.0445 10.1253 13.0997 10.216 13.1373C10.3067 13.175 10.404 13.1943 10.5022 13.1943C10.6005 13.1943 10.6977 13.175 10.7885 13.1373C10.8792 13.0997 10.9616 13.0445 11.031 12.975C11.316 12.6825 11.3235 12.2025 11.031 11.91Z" fill="#34405E"/>
</svg>
