<svg width="24" height="24" viewBox="0 0 24 24" fill="none" xmlns="http://www.w3.org/2000/svg">
<path fill-rule="evenodd" clip-rule="evenodd" d="M17.7115 2.27782C17.2463 1.34746 16.1456 0.928981 15.1798 1.31529L5.45267 5.20616H4.29045C3.41414 5.20616 2.57373 5.55427 1.95408 6.17392C1.33444 6.79356 0.986328 7.63398 0.986328 8.51028V19.524C0.986328 20.4003 1.33444 21.2407 1.95408 21.8604C2.57373 22.48 3.41414 22.8281 4.29045 22.8281H19.7097C20.586 22.8281 21.4264 22.48 22.046 21.8604C22.6657 21.2407 23.0138 20.4003 23.0138 19.524V8.51028C23.0138 7.63398 22.6657 6.79356 22.046 6.17392C21.4264 5.55427 20.586 5.20616 19.7097 5.20616H19.1757L17.7115 2.27782ZM16.9396 5.20616L15.9226 3.17225L10.8378 5.20616H16.9396ZM17.5069 16.5503H20.8111V11.484H17.5069C16.8351 11.484 16.1908 11.7509 15.7157 12.2259C15.2407 12.701 14.9738 13.3453 14.9738 14.0172C14.9738 14.689 15.2407 15.3333 15.7157 15.8084C16.1908 16.2834 16.8351 16.5503 17.5069 16.5503ZM17.5069 9.61166H20.8111V8.51028C20.8111 8.21818 20.695 7.93804 20.4885 7.7315C20.2819 7.52495 20.0018 7.40891 19.7097 7.40891H4.29045C3.99835 7.40891 3.71821 7.52495 3.51166 7.7315C3.30511 7.93804 3.18908 8.21818 3.18908 8.51028V19.524C3.18908 19.8161 3.30511 20.0963 3.51166 20.3028C3.71821 20.5094 3.99835 20.6254 4.29045 20.6254H19.7097C20.0018 20.6254 20.2819 20.5094 20.4885 20.3028C20.695 20.0963 20.8111 19.8161 20.8111 19.524V18.4226H17.5069C16.3385 18.4226 15.218 17.9585 14.3918 17.1323C13.5656 16.3061 13.1014 15.1856 13.1014 14.0172C13.1014 12.8487 13.5656 11.7282 14.3918 10.902C15.218 10.0758 16.3385 9.61166 17.5069 9.61166ZM16.5912 14.629C16.4702 14.4479 16.4056 14.235 16.4056 14.0172C16.4056 13.725 16.5216 13.4449 16.7281 13.2384C16.9347 13.0318 17.2148 12.9158 17.5069 12.9158C17.7248 12.9158 17.9377 12.9804 18.1188 13.1014C18.2999 13.2224 18.4411 13.3944 18.5245 13.5957C18.6078 13.7969 18.6296 14.0184 18.5871 14.232C18.5446 14.4457 18.4398 14.6419 18.2857 14.7959C18.1317 14.95 17.9354 15.0549 17.7218 15.0974C17.5082 15.1399 17.2867 15.118 17.0855 15.0347C16.8842 14.9513 16.7122 14.8102 16.5912 14.629Z" fill="#34405E"/>
</svg>
