<svg width="152" height="152" viewBox="0 0 152 152" fill="none" xmlns="http://www.w3.org/2000/svg">
<path d="M131.294 41.531L130.543 40.2907C124.202 29.8452 112.744 23.5494 100.66 24.3185C99.1043 24.4178 97.558 24.6301 96.0331 24.9539C85.0466 27.3068 75.4888 35.6152 71.5277 46.2552C69.196 52.5115 68.5454 59.7163 64.1222 64.6837C58.3675 71.1345 48.597 71.3443 40.0059 71.0768C31.4149 70.8093 21.6382 71.0373 15.9109 77.5185C12.3237 81.583 11.1837 87.3651 11.4725 92.8067C12.2386 107.216 22.2827 120.103 35.0507 126.508C47.8187 132.913 62.8576 133.485 76.8325 130.667C96.4131 126.715 115.033 115.883 126.223 99.1421C137.414 82.4008 140.25 59.6008 131.294 41.531Z" fill="#F4F5FB"/>
<path d="M130.829 27.6141C134.717 27.6141 137.869 24.4619 137.869 20.5735C137.869 16.685 134.717 13.5328 130.829 13.5328C126.94 13.5328 123.788 16.685 123.788 20.5735C123.788 24.4619 126.94 27.6141 130.829 27.6141Z" fill="#F4F5FB"/>
<path d="M146.078 143.676C146.078 143.722 114.702 143.755 76.0032 143.755C37.304 143.755 5.92212 143.722 5.92212 143.676C5.92212 143.63 37.2919 143.597 76.0032 143.597C114.715 143.597 146.078 143.633 146.078 143.676Z" fill="#161B46"/>
<path d="M37.3732 133.275H18.3185V136.735H37.3732V133.275Z" fill="#00ACE9"/>
<path d="M20.1846 136.759C20.0792 135.617 20.0792 134.469 20.1846 133.327C20.29 134.469 20.29 135.617 20.1846 136.759Z" fill="#161B46"/>
<path d="M19.1505 136.759C19.0451 135.617 19.0451 134.469 19.1505 133.327C19.2558 134.469 19.2558 135.617 19.1505 136.759Z" fill="#161B46"/>
<path d="M22.4743 136.759C22.3689 135.617 22.3689 134.469 22.4743 133.327C22.5797 134.469 22.5797 135.617 22.4743 136.759Z" fill="#161B46"/>
<path d="M21.4344 136.759C21.3249 135.618 21.3249 134.468 21.4344 133.327C21.5398 134.469 21.5398 135.617 21.4344 136.759Z" fill="#161B46"/>
<path d="M24.7649 136.759C24.6555 135.618 24.6555 134.468 24.7649 133.327C24.8703 134.469 24.8703 135.617 24.7649 136.759Z" fill="#161B46"/>
<path d="M23.7112 136.759C23.6059 135.617 23.6059 134.469 23.7112 133.327C23.8166 134.469 23.8166 135.617 23.7112 136.759Z" fill="#161B46"/>
<path d="M27.0545 136.759C26.9491 135.617 26.9491 134.469 27.0545 133.327C27.1599 134.469 27.1599 135.617 27.0545 136.759Z" fill="#161B46"/>
<path d="M26.0125 136.759C25.9071 135.617 25.9071 134.469 26.0125 133.327C26.1179 134.469 26.1179 135.617 26.0125 136.759Z" fill="#161B46"/>
<path d="M29.3441 136.759C29.2387 135.617 29.2387 134.469 29.3441 133.327C29.4494 134.469 29.4494 135.617 29.3441 136.759Z" fill="#161B46"/>
<path d="M28.3021 136.759C28.1967 135.617 28.1967 134.469 28.3021 133.327C28.4074 134.469 28.4074 135.617 28.3021 136.759Z" fill="#161B46"/>
<path d="M31.6337 136.759C31.5283 135.617 31.5283 134.469 31.6337 133.327C31.7391 134.469 31.7391 135.617 31.6337 136.759Z" fill="#161B46"/>
<path d="M30.5898 136.759C30.4844 135.617 30.4844 134.469 30.5898 133.327C30.6952 134.469 30.6952 135.617 30.5898 136.759Z" fill="#161B46"/>
<path d="M33.9215 136.759C33.8161 135.617 33.8161 134.469 33.9215 133.327C34.0268 134.469 34.0268 135.617 33.9215 136.759Z" fill="#161B46"/>
<path d="M32.8795 136.759C32.7741 135.617 32.7741 134.469 32.8795 133.327C32.9848 134.469 32.9848 135.617 32.8795 136.759Z" fill="#161B46"/>
<path d="M36.211 136.759C36.1056 135.617 36.1056 134.469 36.211 133.327C36.3164 134.469 36.3164 135.617 36.211 136.759Z" fill="#161B46"/>
<path d="M35.169 136.759C35.0636 135.617 35.0636 134.469 35.169 133.327C35.2784 134.468 35.2784 135.618 35.169 136.759Z" fill="#161B46"/>
<path d="M37.373 133.275C37.373 133.318 33.0775 133.354 27.7788 133.354C22.4801 133.354 18.1846 133.318 18.1846 133.275C18.1846 133.232 22.4801 133.196 27.7788 133.196C33.0775 133.196 37.373 133.229 37.373 133.275Z" fill="#161B46"/>
<path d="M35.8802 136.707H16.8254V140.166H35.8802V136.707Z" fill="#00ACE9"/>
<path d="M18.6924 140.191C18.5871 139.049 18.5871 137.9 18.6924 136.758C18.7978 137.9 18.7978 139.049 18.6924 140.191Z" fill="#161B46"/>
<path d="M17.6496 140.191C17.5442 139.049 17.5442 137.9 17.6496 136.758C17.755 137.9 17.755 139.049 17.6496 140.191Z" fill="#161B46"/>
<path d="M20.9753 140.191C20.8699 139.049 20.8699 137.9 20.9753 136.758C21.0807 137.9 21.0807 139.049 20.9753 140.191Z" fill="#161B46"/>
<path d="M19.9382 140.191C19.8328 139.049 19.8328 137.9 19.9382 136.758C20.0436 137.9 20.0436 139.049 19.9382 140.191Z" fill="#161B46"/>
<path d="M23.2698 140.191C23.1644 139.049 23.1644 137.9 23.2698 136.758C23.3752 137.9 23.3752 139.049 23.2698 140.191Z" fill="#161B46"/>
<path d="M22.2278 140.191C22.1225 139.049 22.1225 137.9 22.2278 136.758C22.3332 137.9 22.3332 139.049 22.2278 140.191Z" fill="#161B46"/>
<path d="M25.5604 140.191C25.455 139.049 25.455 137.9 25.5604 136.758C25.6658 137.9 25.6658 139.049 25.5604 140.191Z" fill="#161B46"/>
<path d="M24.5164 140.191C24.411 139.049 24.411 137.9 24.5164 136.758C24.6259 137.9 24.6259 139.049 24.5164 140.191Z" fill="#161B46"/>
<path d="M27.8511 140.191C27.7417 139.049 27.7417 137.9 27.8511 136.758C27.9565 137.9 27.9565 139.049 27.8511 140.191Z" fill="#161B46"/>
<path d="M26.809 140.191C26.7036 139.049 26.7036 137.9 26.809 136.758C26.9144 137.9 26.9144 139.049 26.809 140.191Z" fill="#161B46"/>
<path d="M30.1396 140.191C30.0342 139.049 30.0342 137.9 30.1396 136.758C30.245 137.9 30.245 139.049 30.1396 140.191Z" fill="#161B46"/>
<path d="M29.0977 140.191C28.9923 139.049 28.9923 137.9 29.0977 136.758C29.2031 137.9 29.2031 139.049 29.0977 140.191Z" fill="#161B46"/>
<path d="M32.4302 140.191C32.3248 139.049 32.3248 137.9 32.4302 136.758C32.5356 137.9 32.5356 139.049 32.4302 140.191Z" fill="#161B46"/>
<path d="M31.3873 140.191C31.2819 139.049 31.2819 137.9 31.3873 136.758C31.4927 137.9 31.4927 139.049 31.3873 140.191Z" fill="#161B46"/>
<path d="M34.7199 140.191C34.6145 139.049 34.6145 137.9 34.7199 136.758C34.8253 137.9 34.8253 139.049 34.7199 140.191Z" fill="#161B46"/>
<path d="M33.676 140.191C33.5706 139.049 33.5706 137.9 33.676 136.758C33.7814 137.9 33.7814 139.049 33.676 140.191Z" fill="#161B46"/>
<path d="M35.8713 136.707C35.8713 136.75 31.5849 136.786 26.2983 136.786C21.0118 136.786 16.7284 136.75 16.7284 136.707C16.7284 136.665 21.0118 136.628 26.2983 136.628C31.5849 136.628 35.8713 136.665 35.8713 136.707Z" fill="#161B46"/>
<path d="M34.6558 140.191H15.6011V143.65H34.6558V140.191Z" fill="#00ACE9"/>
<path d="M17.4671 143.675C17.3617 142.534 17.3617 141.385 17.4671 140.243C17.5725 141.385 17.5725 142.534 17.4671 143.675Z" fill="#161B46"/>
<path d="M16.4155 143.675C16.3101 142.534 16.3101 141.385 16.4155 140.243C16.5209 141.385 16.5209 142.534 16.4155 143.675Z" fill="#161B46"/>
<path d="M19.7597 143.675C19.6543 142.534 19.6543 141.385 19.7597 140.243C19.8651 141.385 19.8651 142.534 19.7597 143.675Z" fill="#161B46"/>
<path d="M18.7128 143.675C18.6074 142.534 18.6074 141.385 18.7128 140.243C18.8223 141.385 18.8223 142.534 18.7128 143.675Z" fill="#161B46"/>
<path d="M22.0445 143.675C21.9391 142.534 21.9391 141.385 22.0445 140.243C22.1539 141.385 22.1539 142.534 22.0445 143.675Z" fill="#161B46"/>
<path d="M21.0045 143.675C20.8991 142.534 20.8991 141.385 21.0045 140.243C21.1098 141.385 21.1098 142.534 21.0045 143.675Z" fill="#161B46"/>
<path d="M24.337 143.675C24.2316 142.534 24.2316 141.385 24.337 140.243C24.4424 141.385 24.4424 142.534 24.337 143.675Z" fill="#161B46"/>
<path d="M23.295 143.675C23.1896 142.534 23.1896 141.385 23.295 140.243C23.4004 141.385 23.4004 142.534 23.295 143.675Z" fill="#161B46"/>
<path d="M26.6266 143.675C26.5213 142.534 26.5213 141.385 26.6266 140.243C26.732 141.385 26.732 142.534 26.6266 143.675Z" fill="#161B46"/>
<path d="M25.5847 143.675C25.4793 142.534 25.4793 141.385 25.5847 140.243C25.69 141.385 25.69 142.534 25.5847 143.675Z" fill="#161B46"/>
<path d="M28.9152 143.675C28.8098 142.534 28.8098 141.385 28.9152 140.243C29.0206 141.385 29.0206 142.534 28.9152 143.675Z" fill="#161B46"/>
<path d="M27.8724 143.675C27.767 142.534 27.767 141.385 27.8724 140.243C27.9778 141.385 27.9778 142.534 27.8724 143.675Z" fill="#161B46"/>
<path d="M31.2039 143.675C31.0985 142.534 31.0985 141.385 31.2039 140.243C31.3093 141.385 31.3093 142.534 31.2039 143.675Z" fill="#161B46"/>
<path d="M30.1619 143.675C30.0565 142.534 30.0565 141.385 30.1619 140.243C30.2673 141.385 30.2673 142.534 30.1619 143.675Z" fill="#161B46"/>
<path d="M33.4936 143.675C33.3882 142.534 33.3882 141.385 33.4936 140.243C33.599 141.385 33.599 142.534 33.4936 143.675Z" fill="#161B46"/>
<path d="M32.4516 143.675C32.3462 142.534 32.3462 141.385 32.4516 140.243C32.557 141.385 32.557 142.534 32.4516 143.675Z" fill="#161B46"/>
<path d="M34.6551 140.19C34.6551 140.236 30.3687 140.269 25.0851 140.269C19.8016 140.269 15.5031 140.236 15.5031 140.19C15.5031 140.145 19.7864 140.111 25.076 140.111C30.3656 140.111 34.6551 140.142 34.6551 140.19Z" fill="#161B46"/>
<g opacity="0.3">
<path opacity="0.3" d="M19.4121 136.74C22.301 137.401 25.2739 137.617 28.2281 137.381C31.1496 137.187 34.1044 136.758 37.0441 136.791L19.4121 136.74Z" fill="#161B46"/>
</g>
<g opacity="0.3">
<path opacity="0.3" d="M15.8352 140.236C18.7242 140.896 21.6972 141.111 24.6512 140.874C27.5757 140.68 30.5275 140.251 33.4672 140.287L15.8352 140.236Z" fill="#161B46"/>
</g>
<path d="M18.9781 133.482C18.9781 133.524 18.8717 133.561 18.741 133.561C18.6103 133.561 18.5009 133.524 18.5009 133.482C18.5009 133.439 18.6073 133.4 18.741 133.4C18.8748 133.4 18.9781 133.436 18.9781 133.482Z" fill="white"/>
<path d="M21.6259 133.491C21.2667 133.569 20.8982 133.595 20.5315 133.57C20.1648 133.595 19.7964 133.569 19.4371 133.491C19.7961 133.411 20.1648 133.385 20.5315 133.412C20.8982 133.385 21.2669 133.411 21.6259 133.491Z" fill="white"/>
<path d="M24.6479 133.491C24.2887 133.569 23.9202 133.595 23.5535 133.57C23.1878 133.595 22.8204 133.569 22.4622 133.491C22.8201 133.411 23.1878 133.385 23.5535 133.412C23.9202 133.385 24.2889 133.411 24.6479 133.491Z" fill="white"/>
<path d="M143.314 124.927H122.816V128.651H143.314V124.927Z" fill="#00ACE9"/>
<path d="M124.825 128.675C124.711 127.447 124.711 126.212 124.825 124.984C124.938 126.212 124.938 127.447 124.825 128.675Z" fill="#161B46"/>
<path d="M123.702 128.675C123.589 127.447 123.589 126.212 123.702 124.984C123.816 126.212 123.816 127.447 123.702 128.675Z" fill="#161B46"/>
<path d="M127.287 128.675C127.173 127.447 127.173 126.212 127.287 124.984C127.4 126.212 127.4 127.447 127.287 128.675Z" fill="#161B46"/>
<path d="M126.16 128.675C126.046 127.447 126.046 126.212 126.16 124.984C126.277 126.212 126.277 127.447 126.16 128.675Z" fill="#161B46"/>
<path d="M129.752 128.675C129.635 127.447 129.635 126.212 129.752 124.984C129.866 126.212 129.866 127.447 129.752 128.675Z" fill="#161B46"/>
<path d="M128.631 128.675C128.517 127.447 128.517 126.212 128.631 124.984C128.744 126.212 128.744 127.447 128.631 128.675Z" fill="#161B46"/>
<path d="M132.215 128.675C132.102 127.447 132.102 126.212 132.215 124.984C132.329 126.212 132.329 127.447 132.215 128.675Z" fill="#161B46"/>
<path d="M131.094 128.675C130.98 127.447 130.98 126.212 131.094 124.984C131.207 126.212 131.207 127.447 131.094 128.675Z" fill="#161B46"/>
<path d="M134.67 128.675C134.556 127.447 134.556 126.212 134.67 124.984C134.783 126.212 134.783 127.447 134.67 128.675Z" fill="#161B46"/>
<path d="M133.555 128.675C133.442 127.447 133.442 126.212 133.555 124.984C133.669 126.212 133.669 127.447 133.555 128.675Z" fill="#161B46"/>
<path d="M137.139 128.675C137.026 127.447 137.026 126.212 137.139 124.984C137.253 126.212 137.253 127.447 137.139 128.675Z" fill="#161B46"/>
<path d="M136.018 128.675C135.905 127.447 135.905 126.212 136.018 124.984C136.136 126.212 136.136 127.447 136.018 128.675Z" fill="#161B46"/>
<path d="M139.605 128.675C139.492 127.447 139.492 126.212 139.605 124.984C139.719 126.212 139.719 127.447 139.605 128.675Z" fill="#161B46"/>
<path d="M138.484 128.675C138.37 127.447 138.37 126.212 138.484 124.984C138.597 126.212 138.597 127.447 138.484 128.675Z" fill="#161B46"/>
<path d="M142.068 128.675C141.954 127.447 141.954 126.212 142.068 124.984C142.181 126.212 142.181 127.447 142.068 128.675Z" fill="#161B46"/>
<path d="M140.946 128.675C140.833 127.447 140.833 126.212 140.946 124.984C141.06 126.212 141.06 127.447 140.946 128.675Z" fill="#161B46"/>
<path d="M143.317 124.942C143.317 124.991 138.705 125.027 133.017 125.027C127.329 125.027 122.721 124.991 122.721 124.942C122.721 124.894 127.329 124.857 133.017 124.857C138.705 124.857 143.317 124.881 143.317 124.942Z" fill="#161B46"/>
<path d="M141.974 128.709H121.475V132.433H141.974V128.709Z" fill="#00ACE9"/>
<path d="M123.485 132.458C123.371 131.229 123.371 129.993 123.485 128.764C123.598 129.993 123.598 131.229 123.485 132.458Z" fill="#161B46"/>
<path d="M122.362 132.458C122.249 131.229 122.249 129.993 122.362 128.764C122.476 129.993 122.476 131.229 122.362 132.458Z" fill="#161B46"/>
<path d="M125.947 132.458C125.834 131.229 125.834 129.993 125.947 128.764C126.061 129.993 126.061 131.229 125.947 132.458Z" fill="#161B46"/>
<path d="M124.825 132.458C124.711 131.229 124.711 129.993 124.825 128.764C124.938 129.993 124.938 131.229 124.825 132.458Z" fill="#161B46"/>
<path d="M128.409 132.458C128.295 131.229 128.295 129.993 128.409 128.764C128.522 129.993 128.522 131.229 128.409 132.458Z" fill="#161B46"/>
<path d="M127.287 132.458C127.173 131.229 127.173 129.993 127.287 128.764C127.401 129.993 127.401 131.229 127.287 132.458Z" fill="#161B46"/>
<path d="M130.872 132.458C130.758 131.229 130.758 129.993 130.872 128.764C130.985 129.993 130.985 131.229 130.872 132.458Z" fill="#161B46"/>
<path d="M129.752 132.458C129.635 131.229 129.635 129.992 129.752 128.764C129.866 129.993 129.866 131.229 129.752 132.458Z" fill="#161B46"/>
<path d="M133.337 132.458C133.223 131.229 133.223 129.993 133.337 128.764C133.451 129.993 133.451 131.229 133.337 132.458Z" fill="#161B46"/>
<path d="M132.215 132.458C132.102 131.229 132.102 129.993 132.215 128.764C132.329 129.993 132.329 131.229 132.215 132.458Z" fill="#161B46"/>
<path d="M135.799 132.458C135.686 131.229 135.686 129.993 135.799 128.764C135.913 129.993 135.913 131.229 135.799 132.458Z" fill="#161B46"/>
<path d="M134.67 132.458C134.556 131.229 134.556 129.993 134.67 128.764C134.784 129.993 134.784 131.229 134.67 132.458Z" fill="#161B46"/>
<path d="M138.262 132.458C138.148 131.229 138.148 129.993 138.262 128.764C138.375 129.993 138.375 131.229 138.262 132.458Z" fill="#161B46"/>
<path d="M137.139 132.458C137.026 131.229 137.026 129.993 137.139 128.764C137.253 129.993 137.253 131.229 137.139 132.458Z" fill="#161B46"/>
<path d="M140.724 132.458C140.61 131.229 140.61 129.993 140.724 128.764C140.838 129.993 140.838 131.229 140.724 132.458Z" fill="#161B46"/>
<path d="M139.605 132.458C139.492 131.229 139.492 129.993 139.605 128.764C139.719 129.993 139.719 131.229 139.605 132.458Z" fill="#161B46"/>
<path d="M141.967 128.708C141.967 128.756 137.358 128.793 131.67 128.793C125.983 128.793 121.374 128.756 121.374 128.708C121.374 128.659 125.983 128.622 131.67 128.622C137.358 128.622 141.967 128.662 141.967 128.708Z" fill="#161B46"/>
<path d="M143.649 132.458H123.15V136.182H143.649V132.458Z" fill="#00ACE9"/>
<path d="M125.158 136.205C125.045 134.977 125.045 133.74 125.158 132.512C125.272 133.74 125.272 134.977 125.158 136.205Z" fill="#161B46"/>
<path d="M124.031 136.205C123.917 134.977 123.917 133.74 124.031 132.512C124.145 133.74 124.145 134.977 124.031 136.205Z" fill="#161B46"/>
<path d="M127.621 136.205C127.507 134.977 127.507 133.74 127.621 132.512C127.734 133.74 127.734 134.977 127.621 136.205Z" fill="#161B46"/>
<path d="M126.5 136.205C126.387 134.977 126.387 133.74 126.5 132.512C126.614 133.74 126.614 134.977 126.5 136.205Z" fill="#161B46"/>
<path d="M130.083 136.205C129.969 134.977 129.969 133.74 130.083 132.512C130.197 133.74 130.197 134.977 130.083 136.205Z" fill="#161B46"/>
<path d="M128.962 136.205C128.848 134.977 128.848 133.74 128.962 132.512C129.075 133.74 129.075 134.977 128.962 136.205Z" fill="#161B46"/>
<path d="M132.543 136.205C132.43 134.977 132.43 133.74 132.543 132.512C132.661 133.74 132.661 134.977 132.543 136.205Z" fill="#161B46"/>
<path d="M131.428 136.205C131.314 134.977 131.314 133.74 131.428 132.512C131.541 133.74 131.541 134.977 131.428 136.205Z" fill="#161B46"/>
<path d="M135.011 136.205C134.897 134.977 134.897 133.74 135.011 132.512C135.124 133.74 135.124 134.977 135.011 136.205Z" fill="#161B46"/>
<path d="M133.889 136.205C133.775 134.977 133.775 133.74 133.889 132.512C134.003 133.74 134.003 134.977 133.889 136.205Z" fill="#161B46"/>
<path d="M137.473 136.205C137.359 134.977 137.359 133.74 137.473 132.512C137.586 133.74 137.586 134.977 137.473 136.205Z" fill="#161B46"/>
<path d="M136.352 136.205C136.239 134.977 136.239 133.74 136.352 132.512C136.466 133.74 136.466 134.977 136.352 136.205Z" fill="#161B46"/>
<path d="M139.936 136.205C139.823 134.977 139.823 133.74 139.936 132.512C140.05 133.74 140.05 134.977 139.936 136.205Z" fill="#161B46"/>
<path d="M138.815 136.205C138.701 134.977 138.701 133.74 138.815 132.512C138.928 133.74 138.928 134.977 138.815 136.205Z" fill="#161B46"/>
<path d="M142.399 136.205C142.285 134.977 142.285 133.74 142.399 132.512C142.516 133.74 142.516 134.977 142.399 136.205Z" fill="#161B46"/>
<path d="M141.28 136.205C141.166 134.977 141.166 133.74 141.28 132.512C141.393 133.74 141.393 134.977 141.28 136.205Z" fill="#161B46"/>
<path d="M143.649 132.458C143.649 132.507 139.028 132.543 133.328 132.543C127.628 132.543 122.992 132.507 122.992 132.458C122.992 132.41 127.613 132.373 133.328 132.373C139.043 132.373 143.649 132.413 143.649 132.458Z" fill="#161B46"/>
<path d="M142.039 136.151H121.541V139.875H142.039V136.151Z" fill="#00ACE9"/>
<path d="M123.55 139.899C123.436 138.67 123.436 137.434 123.55 136.205C123.663 137.434 123.663 138.67 123.55 139.899Z" fill="#161B46"/>
<path d="M122.429 139.899C122.316 138.67 122.316 137.434 122.429 136.205C122.543 137.434 122.543 138.67 122.429 139.899Z" fill="#161B46"/>
<path d="M126.013 139.899C125.9 138.67 125.9 137.434 126.013 136.205C126.127 137.434 126.127 138.67 126.013 139.899Z" fill="#161B46"/>
<path d="M124.891 139.899C124.777 138.67 124.777 137.434 124.891 136.205C125.008 137.434 125.008 138.671 124.891 139.899Z" fill="#161B46"/>
<path d="M128.478 139.899C128.365 138.67 128.365 137.434 128.478 136.205C128.592 137.434 128.592 138.67 128.478 139.899Z" fill="#161B46"/>
<path d="M127.357 139.899C127.243 138.67 127.243 137.434 127.357 136.205C127.47 137.434 127.47 138.67 127.357 139.899Z" fill="#161B46"/>
<path d="M130.941 139.899C130.827 138.67 130.827 137.434 130.941 136.205C131.054 137.434 131.054 138.67 130.941 139.899Z" fill="#161B46"/>
<path d="M129.806 139.899C129.693 138.67 129.693 137.434 129.806 136.205C129.92 137.434 129.92 138.67 129.806 139.899Z" fill="#161B46"/>
<path d="M133.403 139.899C133.289 138.67 133.289 137.434 133.403 136.205C133.516 137.434 133.516 138.67 133.403 139.899Z" fill="#161B46"/>
<path d="M132.281 139.899C132.168 138.67 132.168 137.434 132.281 136.205C132.395 137.434 132.395 138.67 132.281 139.899Z" fill="#161B46"/>
<path d="M135.865 139.899C135.752 138.67 135.752 137.434 135.865 136.205C135.979 137.434 135.979 138.67 135.865 139.899Z" fill="#161B46"/>
<path d="M134.747 139.899C134.629 138.671 134.629 137.434 134.747 136.205C134.86 137.434 134.86 138.67 134.747 139.899Z" fill="#161B46"/>
<path d="M138.319 139.899C138.205 138.67 138.205 137.434 138.319 136.205C138.432 137.434 138.432 138.67 138.319 139.899Z" fill="#161B46"/>
<path d="M137.209 139.899C137.095 138.67 137.095 137.434 137.209 136.205C137.323 137.434 137.323 138.67 137.209 139.899Z" fill="#161B46"/>
<path d="M140.794 139.899C140.68 138.67 140.68 137.434 140.794 136.205C140.907 137.434 140.907 138.67 140.794 139.899Z" fill="#161B46"/>
<path d="M139.671 139.899C139.558 138.67 139.558 137.434 139.671 136.205C139.785 137.434 139.785 138.67 139.671 139.899Z" fill="#161B46"/>
<path d="M142.044 136.151C142.044 136.199 137.432 136.236 131.744 136.236C126.056 136.236 121.448 136.199 121.448 136.151C121.448 136.102 126.056 136.066 131.744 136.066C137.432 136.066 142.044 136.105 142.044 136.151Z" fill="#161B46"/>
<path d="M144.095 139.926H123.597V143.65H144.095V139.926Z" fill="#00ACE9"/>
<path d="M125.607 143.675C125.493 142.446 125.493 141.21 125.607 139.981C125.72 141.21 125.72 142.446 125.607 143.675Z" fill="#161B46"/>
<path d="M124.484 143.675C124.371 142.446 124.371 141.21 124.484 139.981C124.598 141.21 124.598 142.446 124.484 143.675Z" fill="#161B46"/>
<path d="M128.069 143.675C127.955 142.446 127.955 141.21 128.069 139.981C128.183 141.21 128.183 142.446 128.069 143.675Z" fill="#161B46"/>
<path d="M126.946 143.675C126.833 142.446 126.833 141.21 126.946 139.981C127.06 141.21 127.06 142.446 126.946 143.675Z" fill="#161B46"/>
<path d="M130.53 143.675C130.417 142.446 130.417 141.21 130.53 139.981C130.644 141.21 130.644 142.446 130.53 143.675Z" fill="#161B46"/>
<path d="M129.412 143.675C129.294 142.447 129.294 141.21 129.412 139.981C129.525 141.21 129.525 142.446 129.412 143.675Z" fill="#161B46"/>
<path d="M132.996 143.675C132.883 142.446 132.883 141.21 132.996 139.981C133.11 141.21 133.11 142.446 132.996 143.675Z" fill="#161B46"/>
<path d="M131.875 143.675C131.761 142.446 131.761 141.21 131.875 139.981C131.989 141.21 131.989 142.446 131.875 143.675Z" fill="#161B46"/>
<path d="M135.459 143.675C135.345 142.446 135.345 141.21 135.459 139.981C135.572 141.21 135.572 142.446 135.459 143.675Z" fill="#161B46"/>
<path d="M134.337 143.675C134.224 142.446 134.224 141.21 134.337 139.981C134.451 141.21 134.451 142.446 134.337 143.675Z" fill="#161B46"/>
<path d="M137.921 143.675C137.808 142.446 137.808 141.21 137.921 139.981C138.035 141.21 138.035 142.446 137.921 143.675Z" fill="#161B46"/>
<path d="M136.799 143.675C136.685 142.446 136.685 141.21 136.799 139.981C136.912 141.21 136.912 142.446 136.799 143.675Z" fill="#161B46"/>
<path d="M140.383 143.675C140.27 142.446 140.27 141.21 140.383 139.981C140.497 141.21 140.497 142.446 140.383 143.675Z" fill="#161B46"/>
<path d="M139.265 143.675C139.151 142.446 139.151 141.21 139.265 139.981C139.378 141.21 139.378 142.446 139.265 143.675Z" fill="#161B46"/>
<path d="M142.849 143.675C142.735 142.446 142.735 141.21 142.849 139.981C142.962 141.21 142.962 142.446 142.849 143.675Z" fill="#161B46"/>
<path d="M141.727 143.675C141.614 142.446 141.614 141.21 141.727 139.981C141.841 141.21 141.841 142.446 141.727 143.675Z" fill="#161B46"/>
<path d="M144.094 139.927C144.094 139.975 139.486 140.012 133.798 140.012C128.11 140.012 123.501 139.975 123.501 139.927C123.501 139.878 128.11 139.842 133.798 139.842C139.486 139.842 144.094 139.881 144.094 139.927Z" fill="#161B46"/>
<g opacity="0.3">
<path opacity="0.3" d="M123.149 132.458C126.251 133.17 129.445 133.404 132.618 133.151C135.765 132.942 138.941 132.48 142.094 132.516L123.149 132.458Z" fill="#161B46"/>
</g>
<g opacity="0.3">
<path opacity="0.3" d="M123.334 128.75C126.437 129.461 129.63 129.694 132.803 129.44C135.95 129.23 139.127 128.768 142.279 128.805L123.334 128.75Z" fill="#161B46"/>
</g>
<g opacity="0.3">
<path opacity="0.3" d="M124.335 136.189C127.438 136.9 130.632 137.133 133.805 136.879C136.951 136.67 140.128 136.208 143.281 136.247L124.335 136.189Z" fill="#161B46"/>
</g>
<g opacity="0.3">
<path opacity="0.3" d="M123.522 139.906C126.625 140.615 129.818 140.846 132.991 140.593C136.138 140.386 139.315 139.921 142.467 139.961L123.522 139.906Z" fill="#161B46"/>
</g>
<path d="M123.193 127.475C123.079 126.8 123.079 126.111 123.193 125.435C123.306 126.111 123.306 126.8 123.193 127.475Z" fill="white"/>
<path d="M121.902 131.451C121.789 130.727 121.789 129.99 121.902 129.266C122.016 129.99 122.016 130.727 121.902 131.451Z" fill="white"/>
<path d="M123.727 135.279C123.614 134.637 123.614 133.981 123.727 133.339C123.841 133.981 123.841 134.637 123.727 135.279Z" fill="white"/>
<path d="M121.848 138.811C121.735 138.237 121.735 137.646 121.848 137.072C121.962 137.646 121.962 138.237 121.848 138.811Z" fill="white"/>
<path d="M129.357 129.016C129.357 129.061 127.837 129.101 125.977 129.101C124.116 129.101 122.596 129.061 122.596 129.016C123.721 128.93 124.849 128.901 125.977 128.93C127.104 128.901 128.233 128.93 129.357 129.016Z" fill="white"/>
<path d="M131.545 125.435C130.412 125.521 129.274 125.549 128.137 125.52C127.002 125.55 125.865 125.521 124.733 125.435C124.733 125.389 126.253 125.35 128.137 125.35C130.022 125.35 131.545 125.389 131.545 125.435Z" fill="white"/>
<path d="M134.826 125.487C134.084 125.6 133.33 125.6 132.588 125.487C133.33 125.373 134.084 125.373 134.826 125.487Z" fill="white"/>
<path d="M30.6481 48.2459L39.2878 52.6873L51.8399 44.5006L56.0534 49.6443L42.6865 60.2113L33.2686 60.2144L27.4014 51.8939L30.6481 48.2459Z" fill="#EAF3F9"/>
<path d="M33.265 60.2235L27.3887 51.8939L30.6384 48.2459L39.2751 52.6873L51.8303 44.5006L56.0468 49.6473L42.6708 60.2174H33.2468L33.265 60.2235Z" fill="#EAF3F9"/>
<g opacity="0.3">
<path opacity="0.3" d="M30.6485 48.2449L39.2881 52.6864L52.0379 44.2473L56.0537 49.6433L42.6869 60.2104L33.2689 60.2134L27.4017 51.8929L30.6485 48.2449Z" fill="#161B46"/>
</g>
<path d="M76.6464 48.4307C75.4251 51.4419 73.3378 54.0229 70.6486 55.8469C67.9594 57.6708 64.7894 58.6557 61.5401 58.6768C58.2908 58.6978 55.1083 57.7541 52.3958 55.9651C49.6832 54.1761 47.5626 51.6223 46.3025 48.6272C45.0424 45.6321 44.6995 42.3304 45.3172 39.1403C45.9349 35.9502 47.4855 33.0151 49.7726 30.7069C52.0596 28.3987 54.9802 26.8211 58.1645 26.1739C61.3488 25.5268 64.6535 25.8393 67.6601 27.0717C71.683 28.7138 74.8894 31.886 76.5744 35.8911C78.2595 39.8962 78.2854 44.4065 76.6464 48.4307Z" fill="#00ACE9"/>
<path d="M73.0319 46.9535C72.1005 49.2451 70.5101 51.2088 68.4621 52.5961C66.4142 53.9834 64.0006 54.7319 61.527 54.7468C59.0535 54.7618 56.631 54.0425 54.5664 52.6801C52.5018 51.3177 50.8878 49.3734 49.9287 47.0932C48.9697 44.8131 48.7087 42.2997 49.1787 39.8711C49.6488 37.4426 50.8288 35.2081 52.5694 33.4505C54.31 31.6929 56.5329 30.4912 58.9567 29.9976C61.3806 29.5039 63.8964 29.7405 66.1858 30.6773C69.2515 31.9284 71.6949 34.3458 72.9787 37.398C74.2625 40.4501 74.2816 43.8872 73.0319 46.9535Z" fill="#00ACE9"/>
<path d="M73.0317 46.9526C73.0455 46.8856 73.0637 46.8195 73.0864 46.755L73.2627 46.2078C73.3022 46.0831 73.3509 45.9433 73.3995 45.7943C73.4482 45.6454 73.4786 45.466 73.5211 45.2806C73.6338 44.8575 73.7151 44.4267 73.7643 43.9916C73.9329 42.8018 73.9195 41.5933 73.7248 40.4075C73.2849 37.5621 71.8696 34.9582 69.7211 33.0416C67.5727 31.125 64.8247 30.0148 61.9478 29.9012C61.3598 29.8761 60.7708 29.8903 60.1846 29.9438C59.8806 29.9742 59.5949 30.035 59.3 30.0776C59 30.1204 58.7033 30.1843 58.4123 30.2691C57.2135 30.557 56.0689 31.0364 55.0227 31.6888C53.9213 32.3524 52.9339 33.189 52.0982 34.1663C50.3492 36.1833 49.3111 38.7189 49.1434 41.3833C49.0536 42.6676 49.1716 43.9579 49.493 45.2046C49.647 45.8115 49.841 46.4077 50.0736 46.9891C50.3216 47.5506 50.6049 48.0958 50.9218 48.6215C51.234 49.1356 51.5803 49.6282 51.9584 50.0959C52.3349 50.5443 52.7412 50.9668 53.1744 51.3606C55.3088 53.2922 58.0469 54.4239 60.9221 54.5631C63.7974 54.7022 66.632 53.8401 68.9429 52.1236C69.9115 51.4132 70.7673 50.5604 71.4813 49.5943C71.7508 49.2499 71.9946 48.8861 72.2109 48.506C72.3112 48.3419 72.4085 48.202 72.4845 48.0531L72.676 47.6609L72.9405 47.1289C72.9681 47.0676 73.0006 47.0086 73.0378 46.9526C73.0172 47.0168 72.9929 47.0798 72.9648 47.1411C72.904 47.2748 72.825 47.4451 72.7246 47.6852L72.5422 48.0865C72.4693 48.2294 72.375 48.3905 72.2778 48.5455C72.0682 48.933 71.8293 49.304 71.5634 49.6551C70.8564 50.641 70.0024 51.5124 69.031 52.2391C67.6083 53.3156 65.9729 54.0773 64.2334 54.4735C62.4938 54.8698 60.6899 54.8915 58.9413 54.5374C56.7339 54.0831 54.6876 53.0484 53.0133 51.5399C52.1006 50.7379 51.3199 49.7972 50.6998 48.7523C50.3741 48.2165 50.0837 47.66 49.8304 47.0863C49.588 46.4923 49.3849 45.883 49.2224 45.2623C48.8922 43.9903 48.77 42.6731 48.8606 41.362C49.0332 38.6421 50.0925 36.0536 51.8763 33.9931C52.7323 32.9968 53.7422 32.1439 54.8677 31.4668C55.4146 31.1357 55.9834 30.8422 56.5701 30.5883C57.1552 30.3552 57.7554 30.1622 58.3667 30.0107C58.6659 29.9258 58.9707 29.8618 59.2787 29.8192C59.5827 29.7736 59.8867 29.7158 60.1907 29.6854C60.7879 29.6303 61.3882 29.6161 61.9874 29.6428C64.2381 29.741 66.4219 30.4378 68.3136 31.6614C69.8041 32.6366 71.0703 33.9174 72.0283 35.4189C72.9863 36.9204 73.6144 38.6084 73.8707 40.371C74.0564 41.5697 74.0564 42.7899 73.8707 43.9886C73.8149 44.4265 73.7254 44.8594 73.6032 45.2836C73.5546 45.4691 73.5181 45.6423 73.4694 45.7974L73.3174 46.2078L73.1077 46.7671C73.0866 46.8306 73.0612 46.8926 73.0317 46.9526Z" fill="#161B46"/>
<g opacity="0.3">
<path opacity="0.3" d="M72.8915 47.0386C72.8216 47.0112 72.9797 46.4823 73.159 45.5186C73.4114 44.1713 73.4544 42.7932 73.2867 41.4328C73.1698 40.4993 72.9495 39.5817 72.6301 38.6968C72.2636 37.6925 71.7679 36.74 71.1557 35.8635C70.485 34.8981 69.6758 34.0366 68.7541 33.3069C68.269 32.922 67.7547 32.5754 67.2158 32.2703C66.1052 31.6382 64.9002 31.1886 63.6469 30.9387C63.0394 30.8175 62.4235 30.7433 61.8046 30.7168C60.629 30.6678 59.4524 30.7896 58.3117 31.0786C57.2751 31.3411 56.2768 31.7366 55.3416 32.2551C54.5243 32.7132 53.7597 33.2596 53.0616 33.8845C52.0412 34.8131 51.1706 35.8939 50.4806 37.0887C49.9882 37.9307 49.7602 38.4354 49.6902 38.408C49.6203 38.3807 49.748 37.8395 50.1554 36.9184C50.7437 35.6132 51.5682 34.428 52.5874 33.4224C54.1196 31.908 56.0154 30.813 58.0928 30.2426C58.6904 30.0749 59.3003 29.955 59.9168 29.8839C60.5578 29.8023 61.2044 29.7728 61.8502 29.7957C62.519 29.8181 63.1849 29.8944 63.8414 30.0237C64.5164 30.1594 65.18 30.3464 65.8266 30.5831C66.4693 30.8267 67.0923 31.1194 67.6901 31.4586C68.2707 31.7906 68.8238 32.1688 69.3438 32.5895C69.8472 32.9935 70.3169 33.4378 70.7483 33.9179C71.164 34.3757 71.5441 34.8645 71.8853 35.3802C73.0802 37.1628 73.7953 39.2233 73.9616 41.3629C74.0795 42.7964 73.9311 44.2394 73.5238 45.6189C73.2229 46.5704 72.9584 47.0568 72.8915 47.0386Z" fill="#161B46"/>
</g>
<g opacity="0.3">
<path opacity="0.3" d="M59.9486 49.6568L59.1522 51.6814L57.3282 50.9701L58.1034 48.9971C56.3523 48.1854 54.8536 46.9512 54.1514 45.7808L56.0118 43.9568C56.7671 45.0905 57.8042 46.0082 59.0214 46.6198L60.207 43.5981C58.383 42.3213 56.407 40.7709 57.4224 38.1838C58.1763 36.2656 60.2162 35.1651 63.1984 35.9616L63.9888 33.9521L65.7976 34.6605L65.0558 36.6425C66.3233 37.2233 67.4349 38.0964 68.2995 39.1901L66.5211 41.0597C65.8624 40.2318 65.0462 39.5426 64.1195 39.032L62.9035 42.1085C64.7275 43.367 66.6731 44.9053 65.673 47.4558C64.9403 49.3376 62.9278 50.4289 59.9486 49.6568ZM61.2771 40.9472L62.2864 38.3753C61.2406 38.2173 60.6539 38.5942 60.4198 39.1901C60.1858 39.7859 60.581 40.3817 61.2771 40.9472ZM62.6786 46.5317C62.9278 45.8963 62.5387 45.3461 61.8669 44.7685L60.885 47.2673C61.8699 47.4254 62.4506 47.1214 62.6786 46.5317Z" fill="#161B46"/>
</g>
<path d="M19.5944 33.6835L20.9472 47.1203C21.1783 49.4064 21.9839 52.7139 25.5772 52.185C28.6628 51.4918 29.1552 48.4397 28.9394 46.3086C28.836 45.2963 28.7509 44.4542 28.7479 44.3509C28.7479 44.3509 32.1344 43.6821 32.0402 40.2742C31.9946 38.6266 31.6237 35.24 31.2528 32.1818C31.0622 30.5961 30.2812 29.1406 29.0654 28.105C27.8496 27.0695 26.2883 26.5301 24.6925 26.5942H24.3642C20.8256 26.956 19.1506 30.1571 19.5944 33.6835Z" fill="#A2675F"/>
<path d="M28.748 44.3452C27.1738 44.4028 25.616 44.0094 24.2579 43.2113C24.2579 43.2113 25.4405 45.6433 28.8179 45.2116L28.748 44.3452Z" fill="#6F4C47"/>
<path d="M25.6378 34.2135C25.58 34.2895 25.1544 34.0219 24.5859 34.0706C24.0175 34.1192 23.6283 34.4445 23.5584 34.3746C23.4885 34.3047 23.5827 34.2135 23.753 34.0706C23.9808 33.8751 24.2653 33.7578 24.5647 33.7362C24.8611 33.7095 25.1581 33.7811 25.4098 33.9399C25.5983 34.0493 25.6682 34.18 25.6378 34.2135Z" fill="#161B46"/>
<path d="M25.7547 35.6203C25.7614 35.7401 25.721 35.8578 25.642 35.9481C25.563 36.0385 25.4518 36.0943 25.3322 36.1036C25.2737 36.1108 25.2145 36.1062 25.1579 36.0901C25.1013 36.074 25.0485 36.0468 25.0026 36.0099C24.9567 35.9731 24.9186 35.9274 24.8906 35.8757C24.8626 35.8239 24.8453 35.767 24.8397 35.7084C24.8338 35.5883 24.8749 35.4706 24.9544 35.3804C25.0339 35.2901 25.1454 35.2344 25.2653 35.2251C25.3235 35.2179 25.3826 35.2225 25.439 35.2387C25.4955 35.2548 25.5481 35.2821 25.5937 35.319C25.6394 35.3558 25.6772 35.4015 25.7048 35.4533C25.7325 35.505 25.7494 35.5618 25.7547 35.6203Z" fill="#161B46"/>
<path d="M27.5016 38.0009C27.7746 37.9038 28.0584 37.8405 28.3467 37.8124C28.4805 37.7942 28.6051 37.7638 28.6234 37.6695C28.6294 37.5309 28.5923 37.3939 28.517 37.2774C28.3802 36.9734 28.2343 36.6268 28.0823 36.2742C27.4743 34.8484 27.0304 33.6719 27.0882 33.6476C27.1459 33.6233 27.6962 34.7602 28.3042 36.189L28.7237 37.1983C28.8139 37.3567 28.8462 37.5416 28.8149 37.7212C28.7968 37.7688 28.7682 37.8118 28.7314 37.847C28.6946 37.8822 28.6505 37.9088 28.6021 37.9249C28.5292 37.948 28.4536 37.9613 28.3771 37.9644C28.0882 38.0154 27.7938 38.0277 27.5016 38.0009Z" fill="#161B46"/>
<path d="M25.1586 32.1153C25.116 32.2461 24.6539 32.2035 24.1128 32.2917C23.5717 32.3798 23.143 32.5531 23.067 32.4376C23.0306 32.3829 23.1035 32.2582 23.2738 32.1336C23.5025 31.9729 23.7661 31.8687 24.0429 31.8296C24.3189 31.7855 24.6014 31.8084 24.8667 31.8965C25.0704 31.9542 25.1738 32.0515 25.1586 32.1153Z" fill="#161B46"/>
<path d="M30.6475 32.5527C30.5989 32.6622 30.1459 32.5983 29.6079 32.6439C29.0698 32.6895 28.6351 32.805 28.5682 32.7047C28.5378 32.6561 28.6138 32.5558 28.7901 32.4524C29.0333 32.3276 29.2992 32.2531 29.5718 32.2333C29.8444 32.2134 30.1183 32.2487 30.377 32.3369C30.5715 32.4129 30.6688 32.501 30.6475 32.5527Z" fill="#161B46"/>
<path d="M19.9722 36.1945C19.9144 36.1702 17.604 35.5865 17.7712 37.9213C17.9384 40.256 20.2397 39.5993 20.2397 39.5325C20.2397 39.4656 19.9722 36.1945 19.9722 36.1945Z" fill="#A2675F"/>
<path d="M19.4552 38.7036C19.4552 38.7036 19.4187 38.7371 19.3518 38.7735C19.2575 38.8205 19.149 38.8303 19.0478 38.8009C18.7955 38.7279 18.5614 38.351 18.5189 37.9345C18.4984 37.7349 18.5234 37.5333 18.5918 37.3447C18.6086 37.2707 18.6431 37.2019 18.6923 37.1442C18.7416 37.0864 18.8041 37.0416 18.8745 37.0134C18.9201 36.9973 18.9699 36.998 19.015 37.0153C19.0601 37.0325 19.0976 37.0653 19.1208 37.1076C19.1573 37.1684 19.1451 37.2171 19.1573 37.2201C19.1694 37.2231 19.2059 37.1775 19.1786 37.0833C19.1628 37.0262 19.1272 36.9767 19.0782 36.9435C19.0108 36.8997 18.9289 36.8844 18.8502 36.9009C18.7561 36.9262 18.67 36.9752 18.6002 37.0434C18.5305 37.1115 18.4794 37.1964 18.452 37.29C18.3672 37.4989 18.3348 37.7254 18.3577 37.9497C18.4064 38.4179 18.68 38.8404 19.0235 38.9134C19.0871 38.9262 19.1527 38.925 19.2157 38.9098C19.2787 38.8945 19.3376 38.8657 19.3883 38.8252C19.4552 38.7614 19.4734 38.7097 19.4552 38.7036Z" fill="#6F4C47"/>
<path d="M27.1368 39.6549C27.155 39.5941 26.6869 39.509 26.319 39.1199C26.1654 38.948 26.0346 38.7569 25.9299 38.5514C25.8448 38.3903 25.7809 38.29 25.7566 38.3021C25.7323 38.3143 25.7566 38.4237 25.8113 38.6061C25.8874 38.8457 26.015 39.0657 26.1853 39.2506C26.3599 39.4353 26.5817 39.5688 26.8267 39.6367C27.0121 39.6854 27.1337 39.6762 27.1368 39.6549Z" fill="#161B46"/>
<path d="M30.8216 33.8422C30.7608 33.9182 30.3352 33.6476 29.7668 33.6993C29.1983 33.751 28.8092 34.0732 28.7423 34.0033C28.6754 33.9334 28.7636 33.8422 28.9338 33.6993C29.1642 33.5062 29.4489 33.3894 29.7485 33.3649C30.0448 33.3402 30.3411 33.4116 30.5936 33.5686C30.7791 33.6871 30.849 33.8087 30.8216 33.8422Z" fill="#161B46"/>
<path d="M30.5241 35.3345C30.53 35.4546 30.4889 35.5723 30.4094 35.6626C30.3299 35.7528 30.2184 35.8085 30.0985 35.8179C30.0401 35.8246 29.9809 35.8196 29.9245 35.8031C29.8681 35.7866 29.8155 35.759 29.7699 35.7219C29.7243 35.6848 29.6866 35.6389 29.6589 35.587C29.6313 35.5351 29.6144 35.4782 29.6091 35.4196C29.6032 35.3003 29.644 35.1834 29.7229 35.0938C29.8018 35.0041 29.9126 34.9487 30.0316 34.9393C30.0901 34.9317 30.1495 34.936 30.2063 34.9519C30.2631 34.9679 30.3161 34.9951 30.3621 35.032C30.4081 35.0689 30.4461 35.1147 30.474 35.1667C30.5018 35.2187 30.5189 35.2758 30.5241 35.3345Z" fill="#161B46"/>
<path d="M32.5172 32.0078L32.5142 32.0048L32.5172 32.0078Z" fill="#161B46"/>
<path d="M36.0773 131.78L35.8341 143.332L51.0341 143.688C50.9794 142.314 43.1939 139.377 43.1939 139.377L43.6712 131.987L36.0773 131.78Z" fill="#EAF3F9"/>
<g opacity="0.6">
<path opacity="0.6" d="M38.5067 138.626C38.3635 138.659 38.238 138.745 38.1553 138.867C38.0725 138.989 38.0384 139.137 38.0598 139.283C38.1023 139.425 38.1958 139.548 38.3224 139.626C38.4491 139.704 38.6001 139.734 38.7469 139.708C38.9006 139.675 39.0355 139.584 39.1234 139.453C39.2112 139.323 39.2452 139.164 39.2181 139.009C39.1588 138.863 39.0471 138.744 38.9048 138.676C38.7625 138.608 38.5999 138.595 38.449 138.641" fill="white"/>
</g>
<g opacity="0.6">
<path opacity="0.6" d="M35.8347 143.322L35.9077 142.157L50.4632 142.935C50.4632 142.935 51.132 143.239 51.0438 143.677L35.8347 143.322Z" fill="white"/>
</g>
<path d="M43.438 139.301C43.438 139.371 43.061 139.392 42.6901 139.605C42.3192 139.818 42.1156 140.109 42.0487 140.082C41.9818 140.055 42.1034 139.65 42.5564 139.395C43.0093 139.14 43.4532 139.234 43.438 139.301Z" fill="#161B46"/>
<path d="M45.0118 139.96C45.027 140.027 44.7078 140.14 44.4434 140.431C44.1789 140.723 44.1029 141.039 44.0299 141.039C43.957 141.039 43.9174 140.638 44.2488 140.283C44.5802 139.927 45.0118 139.893 45.0118 139.96Z" fill="#161B46"/>
<path d="M45.8698 141.784C45.8029 141.784 45.7087 141.444 45.9093 141.064C46.1099 140.684 46.4626 140.541 46.4899 140.599C46.5173 140.656 46.3015 140.86 46.1403 141.173C45.9792 141.486 45.9458 141.778 45.8698 141.784Z" fill="#161B46"/>
<path d="M43.3464 137.605C43.316 137.669 42.9756 137.563 42.556 137.581C42.1365 137.599 41.8052 137.715 41.7687 137.654C41.7322 137.593 42.0544 137.35 42.5469 137.35C43.0394 137.35 43.386 137.55 43.3464 137.605Z" fill="#161B46"/>
<path d="M43.0292 135.89C42.778 135.945 42.5169 135.938 42.2692 135.868C41.8387 135.781 41.4271 135.618 41.0532 135.388C40.97 135.342 40.8941 135.283 40.8282 135.215C40.783 135.164 40.756 135.1 40.7516 135.032C40.7472 134.964 40.7656 134.897 40.8039 134.841C40.8434 134.792 40.8934 134.752 40.9503 134.726C41.0072 134.699 41.0694 134.685 41.1322 134.686C41.2291 134.688 41.3252 134.703 41.418 134.731C41.5784 134.773 41.735 134.828 41.8862 134.895C42.139 135.008 42.372 135.161 42.5762 135.348C42.9228 135.652 43.0353 135.929 43.0079 135.941C42.9806 135.953 42.8103 135.741 42.4577 135.476C42.2505 135.324 42.026 135.198 41.7889 135.099C41.6428 135.049 41.4935 135.008 41.342 134.978C41.1839 134.935 41.038 134.929 41.0015 134.996C40.965 135.063 40.9833 135.032 41.0015 135.078C41.0509 135.128 41.1072 135.171 41.1687 135.206C41.2958 135.288 41.4277 135.364 41.5639 135.43C41.7983 135.547 42.0424 135.643 42.2935 135.716C42.5427 135.756 42.7886 135.814 43.0292 135.89Z" fill="#161B46"/>
<path d="M42.9292 135.989C42.7927 135.783 42.7286 135.537 42.7468 135.29C42.7421 135.023 42.7843 134.758 42.8715 134.506C42.9253 134.355 42.9946 134.21 43.0782 134.074C43.1225 133.977 43.1917 133.893 43.2787 133.831C43.3657 133.769 43.4674 133.731 43.5737 133.721C43.6385 133.726 43.701 133.748 43.7545 133.784C43.808 133.821 43.8505 133.872 43.8777 133.931C43.9136 134.015 43.9372 134.104 43.9476 134.196C43.9734 134.356 43.9734 134.519 43.9476 134.679C43.8978 134.949 43.7795 135.203 43.6041 135.415C43.3001 135.779 42.9961 135.855 42.9779 135.831C42.9596 135.807 43.218 135.667 43.4551 135.314C43.59 135.113 43.6783 134.885 43.7135 134.645C43.7333 134.507 43.7333 134.367 43.7135 134.229C43.6923 134.077 43.6345 133.952 43.5737 133.965C43.5129 133.977 43.367 134.074 43.3031 134.196C43.2238 134.317 43.1566 134.447 43.1025 134.582C43.0131 134.811 42.9568 135.051 42.9353 135.296C42.8988 135.716 42.9718 135.98 42.9292 135.989Z" fill="#161B46"/>
<path d="M21.8506 127.034L15.6399 135.202L26.3711 143.41C27.0551 142.389 22.9936 136.193 22.9936 136.193L27.198 131.135L21.8506 127.034Z" fill="#EAF3F9"/>
<g opacity="0.6">
<path opacity="0.6" d="M20.0113 133.229C19.8905 133.178 19.7547 133.174 19.6312 133.218C19.5077 133.263 19.4056 133.352 19.3455 133.469C19.2996 133.594 19.3022 133.731 19.3529 133.854C19.4036 133.977 19.4986 134.076 19.6191 134.132C19.7467 134.186 19.8902 134.19 20.0206 134.143C20.151 134.095 20.2585 134 20.3213 133.876C20.355 133.741 20.3369 133.597 20.2706 133.474C20.2043 133.351 20.0945 133.257 19.9626 133.211" fill="white"/>
</g>
<g opacity="0.6">
<path opacity="0.6" d="M15.6395 135.201L16.2992 134.402L26.3312 142.564C26.3312 142.564 26.6565 143.127 26.3586 143.403L15.6395 135.201Z" fill="white"/>
</g>
<path d="M23.2068 136.284C23.1673 136.332 22.9028 136.156 22.5076 136.117C22.1124 136.077 21.8297 136.18 21.7963 136.117C21.7628 136.053 22.0607 135.834 22.5228 135.889C22.9849 135.943 23.2524 136.247 23.2068 136.284Z" fill="#161B46"/>
<path d="M23.9947 137.586C23.9704 137.64 23.6907 137.552 23.3411 137.625C22.9915 137.698 22.7787 137.881 22.7331 137.838C22.6875 137.795 22.8638 137.491 23.2864 137.409C23.7089 137.327 24.0312 137.537 23.9947 137.586Z" fill="#161B46"/>
<path d="M23.6568 139.344C23.602 139.32 23.7176 139.016 24.0611 138.848C24.4046 138.681 24.7329 138.76 24.7208 138.818C24.7086 138.876 24.4502 138.906 24.1705 139.046C23.8908 139.186 23.7115 139.38 23.6568 139.344Z" fill="#161B46"/>
<path d="M24.0144 135.019C23.9597 135.047 23.7712 134.797 23.4612 134.588C23.1511 134.378 22.8531 134.284 22.8531 134.229C22.8531 134.174 23.2149 134.159 23.5797 134.408C23.9445 134.658 24.0844 135.001 24.0144 135.019Z" fill="#161B46"/>
<path d="M24.6952 133.625C24.6952 133.647 24.449 133.519 24.1602 133.212C23.9883 133.032 23.8374 132.833 23.7102 132.619C23.6396 132.493 23.5766 132.364 23.5218 132.23C23.485 132.153 23.4604 132.071 23.4488 131.987C23.4415 131.926 23.4554 131.865 23.4881 131.814C23.5207 131.762 23.5702 131.723 23.6282 131.704C23.6804 131.692 23.7347 131.691 23.7872 131.702C23.8398 131.713 23.8892 131.736 23.9322 131.768C24.0009 131.819 24.0623 131.879 24.1146 131.947C24.2085 132.06 24.292 132.181 24.3638 132.309C24.4861 132.523 24.5743 132.755 24.6253 132.996C24.6932 133.209 24.6932 133.437 24.6253 133.65C24.5888 133.65 24.5858 133.4 24.4702 133.027C24.4007 132.813 24.3058 132.609 24.1875 132.419C24.1152 132.305 24.0349 132.196 23.9474 132.093C23.8562 131.978 23.7589 131.902 23.692 131.929C23.6251 131.956 23.6616 131.944 23.6616 131.993C23.6713 132.055 23.6887 132.115 23.7133 132.172C23.8461 132.515 24.0284 132.837 24.2544 133.127C24.525 133.431 24.7165 133.598 24.6952 133.625Z" fill="#161B46"/>
<path d="M24.574 133.643C24.5497 133.643 24.574 133.378 24.8081 133.035C24.944 132.843 25.1128 132.678 25.3067 132.545C25.4244 132.466 25.5496 132.397 25.6806 132.342C25.7636 132.297 25.8566 132.273 25.9511 132.273C26.0457 132.273 26.1387 132.297 26.2217 132.342C26.2678 132.376 26.3031 132.423 26.3235 132.477C26.344 132.531 26.3487 132.589 26.3372 132.646C26.3198 132.726 26.29 132.803 26.2491 132.874C26.1567 133.045 26.0294 133.195 25.8754 133.314C25.7215 133.433 25.5443 133.518 25.3553 133.564C25.1376 133.643 24.8979 133.634 24.6865 133.54C24.8913 133.509 25.0943 133.468 25.2945 133.415C25.4987 133.347 25.6848 133.234 25.8387 133.084C25.9258 132.994 25.9986 132.891 26.0545 132.78C26.1183 132.661 26.1427 132.539 26.094 132.518C26.0444 132.501 25.9918 132.495 25.9395 132.499C25.8872 132.503 25.8363 132.518 25.79 132.542C25.6693 132.589 25.5532 132.647 25.4435 132.716C25.2494 132.834 25.0751 132.981 24.9267 133.153C24.6926 133.43 24.6227 133.658 24.574 133.643Z" fill="#161B46"/>
<path d="M23.6593 81.4211L25.5046 87.4281C25.9769 88.9691 26.8228 90.3695 27.967 91.5048C29.1587 92.6812 30.5601 94.0766 30.7881 94.3532L36.3939 112.545L35.0988 136.801L44.76 137.457C44.76 137.457 48.56 112.687 47.9459 108.854C47.3318 105.021 43.4345 79.4572 43.4345 79.4572L42.41 77.6788L23.6593 81.4211Z" fill="#161B46"/>
<path d="M31.706 95.0098L30.7272 112.882L17.8771 130.347L25.9331 135.84L43.2641 115.603L43.4344 92.1918L31.706 95.0098Z" fill="#161B46"/>
<path d="M30.797 94.3582C30.797 94.3582 30.797 94.3855 30.8335 94.4402C30.87 94.495 30.8852 94.5892 30.9217 94.6925C31.0038 94.9236 31.1132 95.2519 31.2561 95.6654C31.5601 96.5287 31.9553 97.763 32.4721 99.2951L36.494 111.568V111.583V111.598C36.4423 112.644 36.3846 113.726 36.3268 114.851C36.0228 120.745 35.7188 126.081 35.5151 129.954C35.4026 131.878 35.3145 133.437 35.2506 134.532C35.2142 135.061 35.1868 135.477 35.1686 135.775C35.1686 135.909 35.1503 136.015 35.1442 136.097C35.1418 136.134 35.1367 136.171 35.129 136.207C35.1237 136.171 35.1237 136.134 35.129 136.097C35.129 136.015 35.129 135.906 35.129 135.772C35.129 135.468 35.1564 135.058 35.1777 134.526C35.2294 133.434 35.2993 131.872 35.3874 129.947C35.582 126.071 35.8526 120.736 36.1474 114.842C36.2052 113.726 36.263 112.635 36.3177 111.589V111.622C34.7369 106.737 33.3446 102.426 32.3444 99.3255C31.855 97.7873 31.4598 96.55 31.1831 95.6775C31.0554 95.258 30.9521 94.9266 30.8791 94.6925L30.8062 94.4372C30.7997 94.4114 30.7966 94.3848 30.797 94.3582Z" fill="#EAF3F9"/>
<path d="M20.5641 45.7977C20.5641 45.7977 17.3903 50.7681 18.0044 54.8904C18.3145 56.9789 23.7105 78.1281 23.7105 78.1281L23.6497 85.3998L44.346 81.1256L42.2636 73.7505L36.1167 51.9963L28.8785 45.9041L20.5641 45.7977Z" fill="#EAF3F9"/>
<g opacity="0.3">
<path opacity="0.3" d="M22.8561 56.4625C22.8561 56.4625 32.8881 63.6156 36.4114 63.5275L39.4089 63.6126L38.9468 61.9862L22.8561 56.4625Z" fill="#161B46"/>
</g>
<path d="M24.9579 57.5515C24.718 57.7508 24.4571 57.923 24.1796 58.0653C22.8672 58.8078 21.4417 59.3295 19.9601 59.6096C19.6613 59.6811 19.3553 59.7178 19.0481 59.719C19.3475 59.6282 19.6521 59.5552 19.9601 59.5002C20.681 59.3281 21.3915 59.1149 22.0881 58.8618C22.7875 58.5984 23.4706 58.2939 24.134 57.9498C24.4007 57.8012 24.6758 57.6682 24.9579 57.5515Z" fill="#161B46"/>
<path d="M39.9021 66.1193C39.9021 66.1619 35.9136 67.2228 30.9706 68.4875C26.0275 69.7521 22.0056 70.7432 21.9965 70.7006C21.9874 70.658 25.985 69.6001 30.931 68.3355C35.8771 67.0708 39.893 66.0798 39.9021 66.1193Z" fill="#161B46"/>
<path d="M42.7144 75.9195C42.652 75.9404 42.588 75.9556 42.5229 75.9651L41.9696 76.0685C41.4923 76.1627 40.7992 76.2995 39.948 76.491C38.2426 76.868 35.9048 77.4669 33.3269 78.1448C30.749 78.8227 28.4142 79.4459 26.7149 79.8533C25.8667 80.06 25.1766 80.215 24.6963 80.3154L24.1461 80.4218C24.0809 80.4353 24.0149 80.4445 23.9485 80.4491C24.0085 80.4217 24.0719 80.4023 24.137 80.3914L24.6842 80.2545L26.6875 79.7438L33.2874 77.9928C35.8653 77.3149 38.2091 76.7312 39.9237 76.3816C40.7779 76.2053 41.4771 76.0776 41.9605 76.0077L42.5168 75.9347C42.5819 75.9222 42.6482 75.9171 42.7144 75.9195Z" fill="#161B46"/>
<path d="M58.0149 48.5955C58.0975 47.9916 58.3123 47.4134 58.6442 46.9022C59.2066 46.0115 60.7205 44.9961 60.7448 44.3C60.7691 43.6038 61.5535 43.9017 61.6568 44.7347C61.7146 45.2667 61.0762 46.8931 61.0762 46.8931C61.0762 46.8931 62.3803 46.8323 63.0491 46.1209C63.7179 45.4096 66.2928 43.7254 66.7123 44.0294C67.1896 44.3729 66.4935 44.7468 66.232 45.0235C66.0314 45.2332 64.4323 46.7289 64.4323 46.7289C64.4323 46.7289 68.1351 45.4764 68.6579 45.5129C69.2295 45.5524 68.8403 46.1635 68.6093 46.2425C68.4603 46.2942 69.0714 46.5465 68.7431 47.1028C68.5211 47.4828 67.0893 48.2824 66.6698 48.4131L65.8034 48.6897L68.5394 48.1699C68.5394 48.1699 69.1231 48.4496 68.5394 48.86C68.284 49.0424 60.6354 52.6052 60.0274 52.8302C58.9755 53.2163 57.4525 53.7118 57.4525 53.7118L56.0906 49.2643L58.0149 48.5955Z" fill="#A2675F"/>
<path d="M68.5936 46.243C67.9292 46.7097 67.2217 47.1118 66.4808 47.4438C65.28 48.0518 64.2525 48.4166 64.2343 48.3558C64.4323 48.2245 64.6431 48.1135 64.8635 48.0245L66.4018 47.2766L67.94 46.5166C68.1465 46.4003 68.3658 46.3085 68.5936 46.243Z" fill="#6F4C47"/>
<path d="M20.6704 55.2192C20.6704 55.2192 34.2015 63.3999 40.5034 61.7735C46.8053 60.1471 59.4852 54.4167 59.4852 54.4167L56.5424 47.5676L39.6644 53.6476C39.6644 53.6476 27.5804 47.9992 24.9872 47.2058C21.1842 46.0354 16.004 51.0727 20.6704 55.2192Z" fill="#EAF3F9"/>
<path d="M29.7698 49.1401L29.9491 49.2009C30.0646 49.2465 30.2531 49.3073 30.469 49.4015C30.925 49.5809 31.5938 49.8666 32.4541 50.2405C34.1686 50.9975 36.6432 52.1314 39.7045 53.5845H39.6589L56.5278 47.5045L56.6038 47.4772L56.6342 47.5501L59.583 54.381L59.6165 54.4601L59.5374 54.4965L57.0811 55.5788C54.6157 56.6549 52.1898 57.6673 49.8338 58.6188C47.4778 59.5703 45.1856 60.4215 42.9634 61.142C42.407 61.3122 41.8629 61.4977 41.3096 61.6436L40.4918 61.8685C40.2183 61.9336 39.9412 61.9823 39.6619 62.0145C38.5875 62.1156 37.5042 62.0686 36.4426 61.8746C34.5472 61.5238 32.6902 60.9903 30.8976 60.2817C28.3014 59.272 25.7729 58.0962 23.328 56.7613C22.4616 56.2901 21.808 55.9101 21.349 55.6487L20.8443 55.3447C20.7288 55.2748 20.6741 55.2353 20.6741 55.2353C20.6741 55.2353 20.7379 55.2657 20.8534 55.3295L21.3672 55.6335C21.8202 55.8889 22.489 56.2597 23.3614 56.7188C25.8162 58.0264 28.3481 59.1837 30.9432 60.1844C32.7268 60.8672 34.5713 61.3792 36.4517 61.7135C37.4999 61.8999 38.5686 61.9428 39.6285 61.8412C39.8981 61.813 40.166 61.7704 40.431 61.7135L41.2427 61.4885C41.7899 61.3426 42.3341 61.1541 42.8904 60.9839C45.1035 60.2634 47.3896 59.3909 49.7456 58.4546C52.1016 57.5183 54.5214 56.4999 56.9869 55.4146L59.4402 54.3324L59.3976 54.4479L56.4701 47.5988L56.5765 47.6474L39.6893 53.694H39.665H39.6437C36.6037 52.2257 34.123 51.0735 32.4176 50.2983C31.5634 49.9153 30.8976 49.6204 30.4477 49.4289L29.9339 49.2161C29.8275 49.1705 29.7698 49.1401 29.7698 49.1401Z" fill="#161B46"/>
<path d="M27.3587 48.3886C27.2266 48.3474 27.0984 48.2945 26.9757 48.2305C26.7325 48.1241 26.3677 47.966 25.9391 47.8018C25.4232 47.6047 24.8868 47.4661 24.34 47.3884C23.6744 47.2924 22.9957 47.3486 22.3549 47.5526C21.7018 47.7526 21.1311 48.159 20.7285 48.7108C20.2194 49.2702 19.8267 49.9254 19.5733 50.6382C19.3909 51.1641 19.3423 51.4894 19.321 51.4863C19.3191 51.4077 19.3262 51.3292 19.3423 51.2522C19.3757 51.035 19.4255 50.8206 19.4912 50.6108C19.7197 49.8713 20.1055 49.1899 20.6221 48.6135C21.037 48.0326 21.6323 47.6051 22.3154 47.3975C22.979 47.1866 23.6824 47.1325 24.3704 47.2394C24.927 47.3251 25.4711 47.4783 25.9907 47.6954C26.3407 47.8357 26.6827 47.9951 27.0152 48.1727C27.1369 48.2326 27.252 48.305 27.3587 48.3886Z" fill="#161B46"/>
<path d="M33.0837 50.8446C33.0634 50.9666 33.0266 51.0852 32.9742 51.1972C32.8952 51.4192 32.7705 51.7384 32.6125 52.1305C32.3085 52.9148 31.8373 53.988 31.287 55.1705C30.7368 56.3531 30.2078 57.3776 29.8065 58.1224C29.6059 58.4963 29.4387 58.7942 29.3171 58.9979C29.263 59.1064 29.1968 59.2084 29.1195 59.3019C29.1539 59.1842 29.2018 59.071 29.2624 58.9644C29.384 58.7243 29.5299 58.4233 29.7062 58.0676C30.0832 57.3137 30.5969 56.2649 31.1441 55.1006C31.6913 53.9363 32.1686 52.8692 32.5091 52.1001L32.9165 51.1881C32.9607 51.0684 33.0167 50.9533 33.0837 50.8446Z" fill="#161B46"/>
<path d="M40.7837 61.4966C40.7381 61.4966 40.4584 59.8063 40.1575 57.7117C39.8565 55.6172 39.6468 53.9117 39.6893 53.9026C39.7319 53.8935 40.0116 55.5929 40.3156 57.6874C40.6196 59.782 40.8263 61.4905 40.7837 61.4966Z" fill="#161B46"/>
<path d="M51.3467 57.9036C51.2787 57.8243 51.2234 57.7351 51.1825 57.6391C51.0852 57.4628 50.9515 57.2074 50.7904 56.8882C50.462 56.2528 50.0243 55.3682 49.547 54.3924C49.0697 53.4165 48.635 52.5228 48.331 51.8722C48.182 51.55 48.0635 51.2855 47.9844 51.1031C47.9351 51.0068 47.8984 50.9047 47.875 50.7991C47.9408 50.8798 47.996 50.9687 48.0392 51.0636C48.1364 51.2399 48.2702 51.4952 48.4313 51.8144C48.7566 52.4498 49.1974 53.3344 49.6747 54.3133C50.152 55.2922 50.5867 56.1829 50.8755 56.8335C51.0244 57.1557 51.143 57.4202 51.222 57.6026C51.2756 57.6975 51.3175 57.7986 51.3467 57.9036Z" fill="#161B46"/>
<path d="M31.1591 31.616C31.2702 32.0644 31.3999 30.0213 31.0932 29.6713C31.2665 29.6863 31.4414 29.6649 31.6063 29.6086C31.7711 29.5523 31.9222 29.4623 32.0495 29.3446C32.1767 29.2268 32.2773 29.0841 32.3444 28.9258C32.4116 28.7676 32.4438 28.5973 32.439 28.4265C32.4342 28.2556 32.3925 28.0879 32.3166 27.9347C32.2406 27.7814 32.1323 27.646 31.9987 27.5374C31.865 27.4288 31.7092 27.3496 31.5415 27.3049C31.3738 27.2602 31.198 27.2511 31.0259 27.2782C31.1091 27.0515 31.1129 26.8045 31.0365 26.5767C30.9602 26.3488 30.8081 26.1533 30.6046 26.0212C30.3792 25.9181 30.1319 25.8685 29.8825 25.8764C29.8394 25.596 29.7245 25.3315 29.5485 25.1077C29.3601 24.8617 29.1166 24.6617 28.8366 24.5229C28.5567 24.3841 28.2476 24.3102 27.933 24.3068C27.6184 24.3034 27.3065 24.3707 27.0213 24.5035C26.7361 24.6363 26.485 24.831 26.2873 25.0729C26.0484 24.8467 25.7565 24.6816 25.4369 24.5918C25.1172 24.502 24.7795 24.4902 24.4529 24.5575C24.1263 24.6248 23.8207 24.7691 23.5625 24.9779C23.3043 25.1868 23.1014 25.4538 22.9713 25.756C22.6432 25.6356 22.2881 25.6018 21.9412 25.658C21.5942 25.7142 21.2676 25.8585 20.9938 26.0766C20.6542 26.3581 20.4193 26.7423 20.3266 27.1681C20.0138 27.066 19.6748 27.0671 19.361 27.1713C19.0471 27.2755 18.7757 27.477 18.5877 27.7454C18.4703 27.9938 18.3355 28.2341 18.1841 28.4643C17.9468 28.6725 17.6894 28.8575 17.4157 29.0166C17.2355 29.1734 17.0919 29.3665 16.9947 29.5825C16.8975 29.7985 16.8491 30.0323 16.8529 30.2677C16.8566 30.5031 16.9124 30.7344 17.0164 30.9458C17.1204 31.1571 17.2701 31.3434 17.4551 31.4916C17.1647 31.7875 16.9246 32.1272 16.7439 32.4975C16.6547 32.6832 16.6116 32.8868 16.6184 33.0914C16.6252 33.296 16.6816 33.4957 16.783 33.6738C17.0536 34.0822 17.6142 34.2422 17.8793 34.6549C18.0034 34.844 18.0522 35.0744 18.1707 35.2679C18.2751 35.4214 18.4118 35.5511 18.5716 35.6483C18.7315 35.7455 18.9109 35.8081 19.0979 35.8317C19.4698 36.7032 20.1578 36.8395 20.2236 37.1043C20.8915 39.877 21.7916 38.0393 21.3711 32.0245C21.2727 30.6136 20.6183 29.9951 21.6041 28.9438C21.7815 29.0942 21.9502 29.2541 22.1094 29.4228C22.3149 29.5902 22.5539 29.7136 22.8112 29.7851C23.0686 29.8566 23.3388 29.8746 23.6045 29.8379C23.8702 29.8013 24.1257 29.7109 24.3548 29.5724C24.5839 29.434 24.7815 29.2504 24.9351 29.0335C25.1023 29.2271 25.3138 29.379 25.5525 29.477C25.7913 29.5749 26.0506 29.6162 26.3096 29.5975C26.5685 29.5787 26.8198 29.5004 27.0432 29.369C27.2666 29.2376 27.4559 29.0566 27.5956 28.8408C28.0711 29.1329 29.1374 29.5755 29.7548 28.7985C30.3343 29.5058 30.946 30.7308 31.1591 31.616Z" fill="#161B46"/>
<path d="M51.0394 125.554L59.2474 143.675H63.2085L63.774 142.292L64.4793 143.675H67.0785L66.7745 133.099L66.6468 126.849L51.0394 125.554Z" fill="#ABE8FF"/>
<path opacity="0.3" d="M51.0394 125.554L59.2474 143.675H63.2085L63.774 142.292L64.4793 143.675H67.0785L66.7745 133.099L66.6468 126.849L51.0394 125.554Z" fill="#161B46"/>
<path d="M86.9565 127.497L94.9609 143.676H98.922L99.4905 142.411L100.193 143.676H102.792L102.491 133.994L102.36 128.272L86.9565 127.497Z" fill="#ABE8FF"/>
<path opacity="0.3" d="M86.9565 127.497L94.9609 143.676H98.922L99.4905 142.411L100.193 143.676H102.792L102.491 133.994L102.36 128.272L86.9565 127.497Z" fill="#161B46"/>
<path d="M132.482 79.8148L132.558 79.8391L132.771 79.9334C133.038 80.0663 133.287 80.2329 133.512 80.4289C133.932 80.7902 134.275 81.2313 134.523 81.7266C134.77 82.2219 134.917 82.7615 134.953 83.3139C135.001 84.0846 134.806 84.8508 134.397 85.5057C133.93 86.2603 133.24 86.8502 132.421 87.1929C131.973 87.3922 131.489 87.4952 130.998 87.4952C130.508 87.4952 130.023 87.3922 129.576 87.1929C129.094 86.9668 128.717 86.5672 128.518 86.0742C128.409 85.8219 128.365 85.5463 128.391 85.2727C128.416 84.9992 128.51 84.7364 128.664 84.5086C128.828 84.2898 129.037 84.1098 129.279 83.9811C129.52 83.8524 129.786 83.7782 130.059 83.7638C130.589 83.743 131.108 83.9147 131.521 84.2471C131.904 84.5563 132.21 84.9506 132.413 85.3987C132.617 85.8468 132.713 86.3362 132.695 86.8281C132.667 87.7172 132.347 88.5723 131.783 89.2601C131.532 89.5718 131.233 89.8417 130.898 90.0596C130.585 90.2512 130.249 90.4024 129.898 90.5095C129.291 90.6844 128.654 90.732 128.028 90.6494C127.558 90.5902 127.098 90.4643 126.663 90.2755C126.39 90.1558 126.128 90.0102 125.882 89.8407L125.697 89.7009C125.657 89.6705 125.636 89.6523 125.639 89.6492C125.969 89.8722 126.32 90.0626 126.688 90.2177C127.119 90.3956 127.573 90.5113 128.037 90.5612C128.65 90.6324 129.27 90.5786 129.861 90.4031C130.201 90.2959 130.526 90.1458 130.828 89.9563C131.151 89.7442 131.437 89.4814 131.676 89.178C132.218 88.5099 132.523 87.6817 132.546 86.822C132.563 86.3539 132.471 85.8882 132.276 85.4622C132.081 85.0362 131.789 84.6617 131.424 84.3687C131.041 84.0586 130.558 83.8986 130.065 83.9188C129.816 83.9324 129.573 84.0001 129.352 84.1172C129.132 84.2343 128.939 84.3979 128.788 84.5967C128.651 84.8037 128.568 85.0416 128.545 85.2889C128.523 85.5362 128.563 85.7852 128.661 86.0134C128.845 86.4698 129.194 86.84 129.639 87.05C130.07 87.2412 130.536 87.34 131.007 87.34C131.479 87.34 131.945 87.2412 132.375 87.05C133.168 86.7217 133.839 86.1542 134.294 85.4267C134.698 84.7934 134.893 84.0488 134.85 83.2987C134.818 82.6832 134.645 82.0832 134.345 81.5446C134.121 81.1351 133.829 80.7662 133.482 80.4532C133.178 80.1975 132.842 79.9829 132.482 79.8148Z" fill="#ABE8FF"/>
<path d="M128.562 96.2094C129.754 123.098 107.212 136.514 81.6946 136.514C56.1768 136.514 35.4866 119.043 35.4866 97.4923C35.4866 75.9417 56.1738 58.4708 81.6946 58.4708C107.215 58.4708 127.608 74.6801 128.562 96.2094Z" fill="#ABE8FF"/>
<path opacity="0.3" d="M78.4762 68.0961C78.4762 68.0961 81.5405 67.1233 84.4072 70.364C87.2739 73.6046 91.2624 79.1252 91.2624 79.1252C90.9037 80.9219 89.8549 82.3233 87.8211 83.1563L78.4762 68.0961Z" fill="#161B46"/>
<path d="M51.3154 125.447C60.0526 125.447 67.1356 120.02 67.1356 113.324C67.1356 106.628 60.0526 101.2 51.3154 101.2C42.5782 101.2 35.4952 106.628 35.4952 113.324C35.4952 120.02 42.5782 125.447 51.3154 125.447Z" fill="#ABE8FF"/>
<path d="M66.0685 80.9158C66.0685 80.9158 75.3405 66.5305 79.5874 68.09C83.8342 69.6495 87.8197 83.1684 87.8197 83.1684" fill="#ABE8FF"/>
<path d="M55.5839 77.6167L55.1522 73.7224C55.1522 73.7224 49.3458 71.2904 44.1474 70.1079C38.949 68.9253 37.9246 70.1079 37.9246 70.1079L46.1478 81.6325L55.5839 77.6167Z" fill="#ABE8FF"/>
<path opacity="0.3" d="M67.9603 63.8205L71.0368 65.6445C71.0368 65.6445 85.9328 61.6925 97.3814 65.6445L93.1832 62.0695C93.1832 62.0695 79.3056 59.0903 67.9603 63.8205Z" fill="#161B46"/>
<path opacity="0.3" d="M51.3154 125.447C60.0526 125.447 67.1356 120.02 67.1356 113.324C67.1356 106.628 60.0526 101.2 51.3154 101.2C42.5782 101.2 35.4952 106.628 35.4952 113.324C35.4952 120.02 42.5782 125.447 51.3154 125.447Z" fill="#161B46"/>
<path d="M47.2941 125.447C55.479 125.447 62.1141 120.02 62.1141 113.324C62.1141 106.628 55.479 101.2 47.2941 101.2C39.1093 101.2 32.4741 106.628 32.4741 113.324C32.4741 120.02 39.1093 125.447 47.2941 125.447Z" fill="#ABE8FF"/>
<path opacity="0.3" d="M42.1717 107.64H41.0317C40.4709 107.64 40.0164 108.094 40.0164 108.655V118C40.0164 118.561 40.4709 119.015 41.0317 119.015H42.1717C42.7325 119.015 43.1871 118.561 43.1871 118V108.655C43.1871 108.094 42.7325 107.64 42.1717 107.64Z" fill="#161B46"/>
<path opacity="0.3" d="M50.687 107.64H49.547C48.9862 107.64 48.5316 108.094 48.5316 108.655V118C48.5316 118.561 48.9862 119.015 49.547 119.015H50.687C51.2477 119.015 51.7023 118.561 51.7023 118V108.655C51.7023 108.094 51.2477 107.64 50.687 107.64Z" fill="#161B46"/>
<path opacity="0.3" d="M54.6841 77.9995C56.0186 77.2456 56.7361 76.1208 56.2314 74.2664C56.2314 74.2664 49.3458 71.2963 44.1474 70.1076C38.949 68.919 37.9246 70.1076 37.9246 70.1076L46.1478 81.6323L54.6841 77.9995Z" fill="#161B46"/>
<path d="M55.1528 78.3155C55.1528 78.3155 54.7668 78.051 54.1162 77.6163C51.0458 75.5704 42.0839 69.7123 39.8282 69.6485C36.7092 69.5603 36.7061 72.2477 36.7092 74.3301C36.7092 75.8045 37.9252 88.6181 37.9252 88.6181" fill="#ABE8FF"/>
<path d="M87.8196 83.1677C87.8047 83.1399 87.7934 83.1103 87.7861 83.0796C87.7618 83.0127 87.7314 82.9245 87.6949 82.8151L87.3544 81.7967C87.0504 80.9151 86.6096 79.6413 85.9986 78.0909C85.2979 76.2713 84.4857 74.4967 83.5666 72.777C83.0304 71.7609 82.4004 70.7971 81.6849 69.8981C81.313 69.4225 80.8807 68.9973 80.3989 68.6335C79.9278 68.2362 79.3243 68.0311 78.7087 68.0589C78.0945 68.1363 77.5038 68.3435 76.9759 68.6669C76.4504 68.9685 75.9502 69.3121 75.4802 69.6944C74.5932 70.4258 73.7563 71.216 72.9753 72.0596C71.65 73.49 70.3979 74.9866 69.2239 76.5436C68.2116 77.869 67.4333 78.9756 66.8983 79.7325L66.2903 80.6141L66.1322 80.8421C66.1151 80.8698 66.0947 80.8954 66.0714 80.9181L66.117 80.833L66.266 80.5959C66.3967 80.3892 66.5943 80.0852 66.8527 79.6991C67.3725 78.9239 68.1386 77.8112 69.1388 76.4767C70.3042 74.9065 71.5513 73.3986 72.8749 71.9593C73.6566 71.1074 74.4967 70.311 75.389 69.5759C75.8666 69.1859 76.3749 68.8351 76.909 68.5271C77.4593 68.1997 78.0726 67.9925 78.7087 67.9191C79.0362 67.8878 79.3665 67.9347 79.6724 68.0559C79.9675 68.1767 80.2463 68.334 80.5023 68.5241C80.9942 68.897 81.4365 69.3312 81.8186 69.8161C82.5366 70.7253 83.1686 71.6992 83.7064 72.7253C84.6216 74.4539 85.4258 76.2389 86.1141 78.0696C86.7221 79.6261 87.1386 80.906 87.4213 81.7967C87.5642 82.2405 87.6676 82.5871 87.7253 82.8242C87.7557 82.9337 87.78 83.0248 87.8013 83.0917C87.8101 83.1163 87.8162 83.1418 87.8196 83.1677Z" fill="#161B46"/>
<path d="M93.1819 62.0731L93.2579 62.1278L93.4707 62.3011L94.2793 62.976L97.2342 65.484L97.4318 65.6512L97.1825 65.5813C93.2085 64.4607 89.1028 63.8749 84.9739 63.8394C80.304 63.7915 75.6516 64.4171 71.1601 65.6968H71.1419H71.1237L68.7829 64.3258L68.1749 63.9549L68.0198 63.8576C68.0013 63.8475 67.9839 63.8352 67.9681 63.8211L68.0259 63.8454L68.1901 63.9336L68.8193 64.2802L71.1814 65.6147H71.1419C73.0778 65.0418 75.0488 64.595 77.0425 64.2771C78.2221 64.0826 79.4745 63.9397 80.8212 63.8242C82.168 63.7086 83.5572 63.663 84.983 63.6904C87.2587 63.7126 89.5297 63.9026 91.7774 64.2589C93.6156 64.5518 95.4339 64.9579 97.222 65.4749L97.1704 65.5722L94.2398 63.0246L93.4494 62.3254L93.2488 62.14C93.2237 62.1207 93.2012 62.0982 93.1819 62.0731Z" fill="#161B46"/>
<g opacity="0.2">
<path opacity="0.2" d="M76.0475 102.026C75.9775 102.46 75.5307 102.786 74.8953 103.005C74.1288 103.243 73.3299 103.361 72.5271 103.354C71.7238 103.375 70.922 103.273 70.1499 103.05C69.5115 102.847 69.0585 102.53 68.9795 102.099C68.9004 101.667 69.2257 101.205 69.8611 100.831C70.6755 100.413 71.5761 100.19 72.4914 100.18C73.4068 100.17 74.312 100.373 75.1355 100.773C75.7799 101.138 76.1174 101.597 76.0475 102.026Z" fill="white"/>
</g>
<path d="M56.1344 103.594C56.103 103.58 56.0734 103.563 56.0463 103.542L55.8031 103.378L55.4048 103.11C55.2437 103.013 55.0522 102.913 54.8364 102.791C53.6097 102.146 52.2895 101.698 50.9239 101.463C49.9814 101.303 49.0282 101.213 48.0724 101.195C46.9744 101.188 45.8775 101.269 44.7922 101.435C42.2983 101.803 39.9196 102.729 37.8336 104.144C37.2984 104.523 36.7904 104.94 36.3136 105.39C35.8484 105.83 35.4175 106.305 35.0247 106.81C34.2818 107.766 33.6836 108.826 33.2493 109.956C32.5554 111.896 32.4206 113.991 32.8602 116.003C33.0411 116.77 33.3094 117.513 33.6597 118.219C33.936 118.747 34.2606 119.247 34.6295 119.715L35.052 120.213L35.3925 120.548L35.5992 120.754C35.6448 120.803 35.6692 120.827 35.6661 120.83C35.6383 120.812 35.6127 120.791 35.5901 120.767L35.3682 120.569L35.0156 120.244L34.5839 119.754C34.203 119.29 33.8671 118.79 33.5807 118.262C33.2195 117.552 32.942 116.804 32.7538 116.03C32.2905 113.996 32.4149 111.871 33.1125 109.905C33.3245 109.344 33.5785 108.8 33.8725 108.278C34.175 107.731 34.5196 107.209 34.9031 106.716C35.3007 106.204 35.7355 105.722 36.2042 105.275C36.691 104.819 37.209 104.397 37.7546 104.013C39.8598 102.583 42.2637 101.653 44.7831 101.292C45.8755 101.127 46.9797 101.05 48.0845 101.064C49.0469 101.088 50.0062 101.183 50.9543 101.35C52.3251 101.605 53.6461 102.078 54.8668 102.752C55.0796 102.879 55.2711 102.986 55.4322 103.086L55.8213 103.369L56.0584 103.545C56.1101 103.569 56.1375 103.591 56.1344 103.594Z" fill="#161B46"/>
<path d="M43.095 108.704C43.1222 108.863 43.1344 109.025 43.1315 109.187C43.1315 109.528 43.1649 109.972 43.1862 110.51C43.2348 111.622 43.326 113.164 43.3656 114.866C43.3656 115.295 43.3656 115.711 43.3656 116.112C43.3731 116.503 43.3446 116.894 43.2804 117.28C43.2372 117.615 43.1177 117.935 42.9311 118.217C42.7446 118.498 42.4959 118.733 42.2043 118.903C41.9995 119.007 41.7711 119.055 41.5418 119.044C41.3125 119.032 41.0902 118.96 40.8971 118.836C40.7944 118.768 40.7065 118.68 40.6387 118.578C40.6129 118.544 40.5933 118.506 40.5809 118.465C40.6801 118.589 40.798 118.697 40.9305 118.785C41.1154 118.889 41.3234 118.946 41.5358 118.95C41.7482 118.953 41.9581 118.904 42.1465 118.806C42.4164 118.637 42.6451 118.41 42.8155 118.141C42.986 117.872 43.094 117.568 43.1315 117.252C43.1889 116.875 43.2133 116.494 43.2044 116.112C43.2044 115.711 43.2045 115.295 43.1893 114.872C43.1497 113.17 43.0737 111.628 43.0555 110.513C43.0555 109.953 43.0555 109.5 43.0555 109.187C43.0573 109.025 43.0705 108.864 43.095 108.704Z" fill="#161B46"/>
<path d="M51.5009 108.704C51.524 108.864 51.5352 109.026 51.5344 109.187C51.5344 109.528 51.5678 109.972 51.5891 110.51C51.6377 111.622 51.7289 113.164 51.7715 114.866C51.7715 115.295 51.7715 115.711 51.7715 116.112C51.7766 116.503 51.7471 116.894 51.6833 117.28C51.6405 117.615 51.5212 117.935 51.3346 118.217C51.148 118.498 50.8991 118.733 50.6072 118.903C50.4023 119.007 50.174 119.055 49.9447 119.043C49.7155 119.031 49.4932 118.96 49.3 118.836C49.1983 118.767 49.1106 118.679 49.0416 118.578C48.996 118.508 48.9808 118.465 48.9869 118.465C49.0845 118.59 49.2015 118.697 49.3334 118.785C49.5183 118.889 49.7263 118.946 49.9387 118.95C50.1511 118.953 50.361 118.904 50.5494 118.806C50.8193 118.637 51.048 118.41 51.2184 118.141C51.3889 117.872 51.4969 117.568 51.5344 117.252C51.5929 116.875 51.6183 116.494 51.6104 116.112C51.6104 115.711 51.6104 115.295 51.5952 114.872C51.5526 113.17 51.4797 111.628 51.4614 110.513C51.4614 109.953 51.4614 109.5 51.4614 109.187C51.4593 109.025 51.4725 108.863 51.5009 108.704Z" fill="#161B46"/>
<path d="M61.9378 115.966C61.921 116.037 61.8986 116.107 61.871 116.175C61.8193 116.309 61.7615 116.513 61.646 116.759C61.3453 117.47 60.9735 118.148 60.5364 118.784C59.889 119.728 59.133 120.593 58.2838 121.362C57.781 121.814 57.251 122.235 56.6969 122.623C56.0983 123.033 55.4727 123.402 54.8242 123.727C53.5725 124.368 52.2446 124.848 50.8722 125.156C49.7521 125.393 48.6094 125.508 47.4644 125.499C46.4916 125.499 45.7042 125.438 45.1631 125.402L44.5369 125.35C44.4642 125.349 44.3918 125.34 44.321 125.323C44.3938 125.315 44.4671 125.315 44.5399 125.323L45.1662 125.341C45.7073 125.362 46.4946 125.399 47.4644 125.39C48.6002 125.384 49.7323 125.259 50.8418 125.016C52.1955 124.702 53.5055 124.223 54.7422 123.59C55.3852 123.268 56.0058 122.904 56.5996 122.499C57.1484 122.115 57.6752 121.701 58.1774 121.258C59.0235 120.501 59.7812 119.65 60.4361 118.723C60.8798 118.096 61.2664 117.431 61.5913 116.735C61.7129 116.495 61.7798 116.294 61.8436 116.163C61.867 116.094 61.8986 116.027 61.9378 115.966Z" fill="#161B46"/>
<path d="M42.9137 108.367C42.8517 108.26 42.7816 108.158 42.704 108.063C42.5932 107.941 42.4591 107.844 42.3097 107.776C42.1603 107.708 41.9986 107.671 41.8345 107.667C41.5924 107.666 41.3528 107.716 41.1319 107.815C40.9111 107.914 40.7142 108.06 40.5547 108.242C40.363 108.454 40.229 108.711 40.1656 108.99C40.0975 109.294 40.0669 109.605 40.0744 109.917C40.0744 111.224 40.0896 112.413 40.0744 113.261C40.0744 113.662 40.0744 114.003 40.0744 114.276C40.0785 114.4 40.0703 114.525 40.0501 114.647C40.0227 114.526 40.0105 114.401 40.0136 114.276C40.0136 114.003 39.9923 113.668 39.9771 113.261C39.9558 112.404 39.9315 111.218 39.9224 109.917C39.9146 109.592 39.9473 109.267 40.0197 108.95C40.0945 108.649 40.2428 108.371 40.4513 108.142C40.6271 107.947 40.8435 107.794 41.0853 107.693C41.327 107.592 41.588 107.546 41.8497 107.558C42.0259 107.567 42.1983 107.613 42.3554 107.693C42.5126 107.773 42.6511 107.886 42.7617 108.023C42.8193 108.097 42.8663 108.179 42.9016 108.266C42.9107 108.33 42.9198 108.364 42.9137 108.367Z" fill="white"/>
<path d="M48.4835 109.065C48.526 109.065 48.5625 110.667 48.5625 112.643C48.5625 114.619 48.526 116.224 48.4835 116.224C48.4409 116.224 48.4044 114.622 48.4044 112.643C48.4044 110.664 48.4409 109.065 48.4835 109.065Z" fill="white"/>
<path d="M45.9314 102.165C45.8706 102.178 45.8082 102.183 45.746 102.18C45.6213 102.18 45.442 102.18 45.2109 102.18C44.5561 102.204 43.9039 102.276 43.2592 102.393C40.8058 102.85 38.5372 104.007 36.7273 105.725C34.9174 107.443 33.6437 109.649 33.06 112.075C32.9992 112.297 32.9719 112.477 32.9415 112.595C32.9309 112.657 32.9135 112.717 32.8898 112.774C32.8877 112.712 32.8939 112.65 32.908 112.589C32.9293 112.467 32.9476 112.285 32.9992 112.06C33.132 111.414 33.3191 110.781 33.5586 110.166C34.34 108.119 35.6458 106.313 37.3452 104.929C39.0446 103.546 41.0778 102.633 43.241 102.283C43.8908 102.173 44.5488 102.118 45.2079 102.119C45.442 102.119 45.6244 102.134 45.746 102.138C45.8085 102.141 45.8706 102.15 45.9314 102.165Z" fill="white"/>
<path d="M37.9827 86.6788C37.973 86.7389 37.9545 86.7973 37.928 86.8521L37.7395 87.3324C37.6544 87.5392 37.5541 87.7945 37.4355 88.0955C37.3169 88.3964 37.1953 88.7339 37.0798 89.1169C36.9643 89.5 36.8184 89.9134 36.6968 90.3694C36.5752 90.8254 36.4505 91.3118 36.3259 91.8256C35.8179 94.0661 35.5791 96.3593 35.6145 98.6564C35.6328 99.1854 35.6388 99.69 35.6784 100.158C35.7179 100.626 35.7483 101.07 35.7939 101.462C35.8395 101.855 35.8881 102.219 35.9307 102.535C35.9732 102.852 36.0188 103.122 36.0584 103.341C36.0979 103.56 36.1222 103.718 36.1435 103.852C36.1577 103.91 36.1638 103.971 36.1617 104.031C36.1388 103.975 36.1225 103.917 36.1131 103.858L35.9976 103.353C35.9489 103.134 35.8912 102.864 35.8425 102.551C35.7939 102.238 35.724 101.876 35.6814 101.478C35.6388 101.079 35.578 100.642 35.5476 100.167C35.5172 99.6931 35.4899 99.1915 35.4686 98.6473C35.4231 96.3457 35.6682 94.0475 36.1982 91.8073C36.3289 91.2905 36.4444 90.8011 36.5873 90.3481C36.7302 89.8952 36.8549 89.4756 36.9886 89.0956C37.1224 88.7156 37.2531 88.3782 37.3656 88.0803C37.4781 87.7823 37.5905 87.527 37.6696 87.3233C37.7486 87.1196 37.8277 86.9767 37.8854 86.8551C37.9101 86.7924 37.9428 86.7332 37.9827 86.6788Z" fill="white"/>
<path d="M38.4382 70.8699C38.4382 70.8699 38.3135 71.0341 38.1342 71.3533C37.8846 71.8079 37.713 72.3011 37.6265 72.8125C37.5013 73.5732 37.4383 74.3428 37.438 75.1138C37.4137 75.9862 37.4107 76.9378 37.438 77.9531C37.4867 79.9686 37.6478 81.7896 37.7998 83.0998C37.8819 83.7382 37.9457 84.2611 37.9943 84.6533L38.0491 85.0758C38.0531 85.1254 38.0531 85.1752 38.0491 85.2248C38.0276 85.1799 38.0143 85.1315 38.0095 85.0819C37.9852 84.9664 37.9579 84.8296 37.9244 84.6624C37.8575 84.3007 37.7724 83.7717 37.6812 83.1151C37.4485 81.4013 37.3115 79.676 37.2708 77.947C37.2465 76.9378 37.2708 75.9741 37.2708 75.0986C37.2761 74.3202 37.3514 73.5439 37.4958 72.779C37.594 72.2599 37.7845 71.7626 38.0582 71.3107C38.1341 71.1896 38.2195 71.0748 38.3135 70.9672C38.3956 70.9034 38.4321 70.8669 38.4382 70.8699Z" fill="white"/>
<path d="M68.0302 61.3455C67.9668 61.3753 67.9019 61.4017 67.8356 61.4245L67.2702 61.6251L65.1878 62.3395C62.8912 63.1063 60.6365 63.9931 58.4329 64.9965C56.2312 66.0044 54.1533 67.2632 52.2404 68.7479C51.5139 69.3255 50.9545 69.8271 50.5776 70.1858C50.386 70.3591 50.2462 70.505 50.1459 70.5992C50.0986 70.6507 50.0456 70.6966 49.9878 70.736C50.0277 70.6796 50.0725 70.6267 50.1216 70.5779C50.2158 70.4776 50.3496 70.3226 50.535 70.1402C51.0544 69.619 51.6003 69.1248 52.1705 68.6597C54.0729 67.1418 56.1547 65.8635 58.3691 64.8536C60.5768 63.8461 62.8425 62.971 65.1544 62.2331C66.039 61.9443 66.7564 61.7163 67.255 61.5643L67.8296 61.3941C67.8945 61.3707 67.9618 61.3544 68.0302 61.3455Z" fill="white"/>
<path d="M78.6092 68.8828C78.6092 68.8828 78.5667 68.9254 78.4724 68.9923L78.0681 69.278C77.7155 69.5212 77.2108 69.886 76.5967 70.3481C75.9827 70.8102 75.2713 71.3847 74.5052 72.0475C73.7391 72.7102 72.9275 73.4823 72.1127 74.3214C71.298 75.1604 70.5684 76.0116 69.927 76.799C69.2855 77.5863 68.7444 78.319 68.3067 78.9543C67.8689 79.5897 67.5223 80.1004 67.2943 80.4743L67.0238 80.8878C66.9941 80.9378 66.9595 80.9846 66.9204 81.0276C66.9379 80.9724 66.9635 80.9202 66.9964 80.8726C67.0603 80.757 67.1423 80.6142 67.2426 80.4409C67.4554 80.067 67.7868 79.5289 68.2154 78.8996C68.6441 78.2703 69.1822 77.5164 69.8145 76.7169C70.4468 75.9174 71.1855 75.0722 71.9972 74.221C72.8089 73.3698 73.6388 72.6129 74.4079 71.9471C75.1771 71.2814 75.9067 70.7311 76.5359 70.266C77.1652 69.8009 77.6759 69.4635 78.0407 69.2355L78.4633 68.974C78.5088 68.9389 78.5577 68.9083 78.6092 68.8828Z" fill="white"/>
<path d="M125.462 90.0317C125.611 90.2738 125.732 90.5318 125.824 90.8009C126.323 92.0708 126.66 93.3986 126.827 94.7529C126.874 95.0319 126.891 95.3153 126.876 95.598C126.8 95.3261 126.746 95.0486 126.714 94.7681C126.626 94.2573 126.492 93.5521 126.298 92.7829C126.103 92.0138 125.884 91.3268 125.717 90.8343C125.612 90.5736 125.527 90.3053 125.462 90.0317Z" fill="white"/>
<path d="M118.19 124.88C118.19 124.88 118.138 124.922 118.038 124.995L117.591 125.299L116.861 125.813L116.396 126.159L115.852 126.512C113.69 127.938 111.439 129.223 109.112 130.361C108.377 130.719 107.592 131.078 106.781 131.449L105.519 131.984L104.881 132.239L104.212 132.495L102.838 133.021L101.403 133.516C100.92 133.693 100.421 133.842 99.9133 133.997C99.4056 134.152 98.901 134.322 98.3751 134.456C96.1926 135.073 93.9782 135.571 91.7418 135.948C89.3416 136.367 86.9166 136.628 84.4823 136.73C82.048 136.835 79.6092 136.759 77.1863 136.502L76.3077 136.416C76.0189 136.386 75.7301 136.337 75.4444 136.298L73.7389 136.058L72.0821 135.754L71.2704 135.599L70.4709 135.416C66.7149 134.593 63.0491 133.402 59.5269 131.859C57.1505 130.836 54.8636 129.615 52.69 128.211C51.9056 127.731 51.3493 127.299 50.9511 127.014L50.5103 126.688C50.41 126.615 50.3613 126.573 50.3613 126.573L50.5194 126.676L50.9724 126.98C51.3736 127.248 51.936 127.683 52.7234 128.154C54.9057 129.54 57.1962 130.747 59.5725 131.765C63.0894 133.286 66.7454 134.463 70.4892 135.279L71.2856 135.459L72.0973 135.611L73.7511 135.915L75.4504 136.152C75.7362 136.191 76.025 136.24 76.3138 136.267L77.1893 136.353C79.6062 136.609 82.039 136.684 84.4671 136.578C86.8942 136.477 89.3121 136.218 91.7053 135.802C93.9369 135.426 96.1471 134.932 98.3264 134.322C98.8524 134.188 99.357 134.018 99.8647 133.866C100.372 133.714 100.865 133.562 101.348 133.392L102.783 132.899L104.154 132.379L104.823 132.124L105.47 131.853L106.732 131.324C107.544 130.957 108.328 130.604 109.064 130.248C111.392 129.125 113.65 127.861 115.825 126.463C116.015 126.338 116.198 126.222 116.372 126.117L116.843 125.795L117.579 125.296L118.035 124.992L118.19 124.88Z" fill="#161B46"/>
<path d="M105.093 128.136L111.203 143.758H115.38L116.289 142.399L117.362 143.758H118.837L119.387 118.997L105.093 128.136Z" fill="#ABE8FF"/>
<path d="M66.7137 130.333L71.8817 143.758H76.6302L77.6 142.204L78.5363 143.758H79.7128C79.7128 143.758 80.2296 128.612 79.7128 128.184C79.196 127.755 66.7137 130.333 66.7137 130.333Z" fill="#ABE8FF"/>
<path d="M127.04 100.32C127.043 100.35 127.043 100.381 127.04 100.411C127.04 100.478 127.04 100.563 127.018 100.672C126.994 100.912 126.964 101.247 126.924 101.672C126.903 101.891 126.878 102.134 126.851 102.396C126.824 102.657 126.763 102.946 126.714 103.253C126.605 103.861 126.517 104.566 126.319 105.323C126.231 105.706 126.137 106.105 126.039 106.521C125.942 106.938 125.796 107.357 125.669 107.798C125.425 108.686 125.061 109.604 124.708 110.573C123.057 114.761 120.638 118.604 117.576 121.904C116.853 122.645 116.184 123.366 115.485 123.968C115.144 124.272 114.825 124.576 114.493 124.855L113.539 125.628C112.931 126.132 112.344 126.515 111.84 126.877C111.584 127.056 111.35 127.227 111.128 127.373L110.505 127.749L109.645 128.266L109.417 128.397L109.338 128.44C109.338 128.44 109.359 128.418 109.408 128.385L109.626 128.239L110.475 127.698L111.083 127.309C111.305 127.16 111.533 126.986 111.785 126.807C112.283 126.436 112.873 126.047 113.466 125.539L114.411 124.764C114.74 124.494 115.053 124.181 115.393 123.873C116.083 123.265 116.749 122.548 117.464 121.806C120.501 118.508 122.91 114.683 124.571 110.519C124.93 109.555 125.292 108.643 125.538 107.758C125.669 107.321 125.814 106.901 125.918 106.488C126.021 106.074 126.115 105.679 126.222 105.299C126.429 104.545 126.526 103.846 126.638 103.238C126.693 102.934 126.751 102.648 126.79 102.387C126.83 102.125 126.848 101.885 126.875 101.666C126.927 101.241 126.97 100.906 126.997 100.669C127.012 100.563 127.024 100.478 127.033 100.408C127.032 100.378 127.034 100.349 127.04 100.32Z" fill="white"/>
<g opacity="0.2">
<path opacity="0.2" d="M120.429 87.1498C119.043 83.7116 116.018 80.4618 112.525 79.0482C111.859 78.7845 111.14 78.6829 110.428 78.7516C109.715 78.8203 109.029 79.0574 108.426 79.4434C107.823 79.8294 107.32 80.3532 106.959 80.9716C106.599 81.59 106.39 82.2853 106.351 83.0002C106.352 83.0225 106.352 83.0448 106.351 83.0671C106.241 85.268 107.108 87.4021 108.175 89.3356C109.242 91.269 110.503 93.0991 111.327 95.142C112.685 98.551 112.728 102.343 111.449 105.782C110.634 107.946 109.284 110.254 110.506 112.409C111.309 113.826 112.923 114.522 114.543 114.376C117.647 114.093 119.259 111.29 120.73 108.743C121.912 106.694 122.888 103.508 122.943 101.103C123.107 96.3263 122.25 91.5692 120.429 87.1498Z" fill="white"/>
</g>
<path d="M73.3805 96.8606C73.268 96.891 73.0765 96.4381 72.7907 95.7814C72.6265 95.4163 72.4037 95.0805 72.131 94.7873C71.8388 94.459 71.4295 94.2582 70.991 94.228C70.5438 94.2336 70.1131 94.3973 69.775 94.6901C69.4792 94.9449 69.2356 95.2546 69.0576 95.6021C68.7536 96.2313 68.6168 96.6965 68.4982 96.6752C68.3797 96.6539 68.3158 96.1766 68.5377 95.3923C68.6771 94.919 68.9332 94.4883 69.2825 94.1398C69.5087 93.9131 69.7773 93.7333 70.0731 93.6107C70.3689 93.4881 70.686 93.4252 71.0062 93.4254C71.3507 93.4355 71.6873 93.5316 71.9851 93.7051C72.2469 93.8574 72.4795 94.0551 72.6721 94.2888C72.9774 94.6676 73.1963 95.1086 73.3136 95.5808C73.5021 96.3681 73.4777 96.8332 73.3805 96.8606Z" fill="#161B46"/>
<path d="M50.2913 95.0029C50.2913 95.4352 50.1631 95.8578 49.923 96.2172C49.6828 96.5767 49.3414 96.8568 48.942 97.0223C48.5426 97.1877 48.1031 97.231 47.6791 97.1467C47.2551 97.0623 46.8657 96.8541 46.56 96.5485C46.2543 96.2428 46.0461 95.8533 45.9618 95.4293C45.8775 95.0053 45.9207 94.5658 46.0862 94.1664C46.2516 93.767 46.5318 93.4257 46.8912 93.1855C47.2507 92.9453 47.6733 92.8171 48.1056 92.8171C48.6853 92.8171 49.2412 93.0474 49.6511 93.4573C50.061 93.8672 50.2913 94.4232 50.2913 95.0029Z" fill="#161B46"/>
<path d="M119.712 76.7198C119.657 76.6707 119.607 76.6157 119.563 76.5557L119.168 76.0662C118.992 75.8504 118.779 75.5889 118.518 75.2971C118.256 75.0053 117.973 74.6557 117.633 74.2969C117.292 73.9382 116.934 73.5309 116.523 73.1205C116.113 72.7101 115.669 72.2723 115.201 71.8193C114.243 70.9286 113.158 69.9953 111.966 69.0621C110.775 68.1288 109.583 67.3323 108.48 66.6301C107.92 66.2896 107.394 65.9582 106.887 65.6785C106.379 65.3989 105.905 65.1313 105.467 64.9033C105.029 64.6753 104.628 64.4777 104.275 64.2953C103.923 64.1129 103.619 63.9761 103.363 63.8637L102.786 63.5931C102.716 63.565 102.65 63.5293 102.588 63.4867C102.66 63.5066 102.73 63.532 102.798 63.5627L103.388 63.8059C103.643 63.9123 103.956 64.0461 104.3 64.2163C104.643 64.3865 105.066 64.5659 105.516 64.7969C105.965 65.028 106.428 65.2681 106.947 65.56C107.467 65.8518 107.99 66.168 108.552 66.4993C109.665 67.1955 110.86 68.0041 112.061 68.9313C113.261 69.8585 114.344 70.807 115.298 71.7069C115.766 72.1659 116.21 72.5976 116.615 73.0232C117.019 73.4488 117.387 73.844 117.715 74.2149C118.043 74.5857 118.323 74.9323 118.581 75.2333C118.84 75.5342 119.047 75.8017 119.211 76.0237L119.597 76.5313C119.642 76.5895 119.681 76.6528 119.712 76.7198Z" fill="white"/>
<path d="M96.7304 66.897C96.6493 66.8816 96.5698 66.8582 96.4933 66.8271L95.8275 66.5991C95.5235 66.4927 95.1861 66.3711 94.7666 66.2495C94.3471 66.1279 93.8819 65.9638 93.3499 65.833L92.52 65.6142C92.2312 65.5382 91.912 65.4804 91.608 65.4074C90.9818 65.2585 90.3039 65.149 89.5925 65.0214C88.0421 64.7819 86.4788 64.6347 84.9109 64.5806C83.3422 64.5428 81.7727 64.6007 80.2111 64.7538C79.4936 64.839 78.8066 64.9089 78.1743 65.0214C77.8703 65.0761 77.548 65.1156 77.2623 65.1764L76.4202 65.3466C75.8821 65.447 75.4048 65.5777 74.9823 65.681C74.5597 65.7844 74.1979 65.8786 73.9031 65.9668L73.2251 66.1583C73.1464 66.1827 73.0662 66.202 72.985 66.2161C73.0585 66.1783 73.136 66.1487 73.216 66.1279L73.8848 65.909C74.1888 65.8118 74.5354 65.6993 74.9579 65.605C75.3805 65.5108 75.8699 65.3558 76.3959 65.2494L77.2379 65.067C77.5419 65.0062 77.8459 64.9606 78.1499 64.9058C78.7853 64.7842 79.4723 64.7082 80.1928 64.6201C83.3319 64.2817 86.5024 64.3727 89.6168 64.8906C90.3312 65.0214 91.0122 65.1369 91.6415 65.2919C91.9455 65.3679 92.2495 65.4287 92.5535 65.5078L93.3834 65.7388C93.9154 65.8756 94.3835 66.0428 94.797 66.1766C95.2104 66.3103 95.5661 66.438 95.8519 66.5535L96.5085 66.8119C96.5846 66.8344 96.6588 66.8629 96.7304 66.897Z" fill="white"/>
<path d="M108.802 131.328C109.087 131.465 109.342 131.658 109.551 131.896C109.759 132.134 109.918 132.411 110.018 132.711C110.213 133.314 110.268 133.953 110.179 134.581C110.043 135.797 109.349 137.013 108.608 137.995C107.583 137.101 107.349 135.544 107.279 134.745C107.17 133.486 107.735 131.139 108.799 131.328" fill="#EAF3F9"/>
<path d="M109.802 140.005C109.732 139.657 109.756 139.297 109.87 138.961C109.984 138.625 110.185 138.326 110.453 138.093C110.725 137.867 111.038 137.697 111.376 137.592C111.713 137.488 112.068 137.451 112.42 137.485C112.583 137.483 112.746 137.517 112.895 137.584C113.044 137.651 113.176 137.75 113.283 137.874C113.361 138.006 113.402 138.156 113.402 138.309C113.402 138.462 113.361 138.612 113.283 138.743C113.129 139.009 112.906 139.228 112.639 139.379C111.754 139.935 110.793 140.312 109.79 140.011" fill="#EAF3F9"/>
<path d="M108.493 143.729C108.497 143.648 108.51 143.567 108.53 143.489C108.56 143.315 108.602 143.087 108.651 142.814C108.766 142.063 109.001 141.335 109.347 140.659C109.71 139.984 110.243 139.417 110.895 139.014C111.094 138.897 111.306 138.804 111.527 138.737C111.603 138.71 111.667 138.701 111.706 138.689H111.773C111.479 138.79 111.196 138.92 110.928 139.078C110.306 139.483 109.795 140.038 109.442 140.692C109.1 141.362 108.859 142.079 108.727 142.82C108.666 143.103 108.618 143.334 108.578 143.492C108.556 143.573 108.527 143.652 108.493 143.729Z" fill="#161B46"/>
<path d="M108.528 133.152C108.534 133.188 108.534 133.225 108.528 133.261C108.528 133.34 108.528 133.447 108.547 133.565C108.547 133.836 108.577 134.231 108.595 134.717C108.626 135.69 108.65 137.037 108.644 138.523C108.638 140.01 108.601 141.357 108.562 142.329C108.541 142.816 108.522 143.208 108.504 143.482C108.504 143.609 108.504 143.713 108.483 143.786C108.486 143.822 108.486 143.859 108.483 143.895C108.478 143.859 108.478 143.822 108.483 143.786C108.483 143.704 108.483 143.6 108.483 143.482C108.483 143.199 108.483 142.81 108.51 142.329C108.535 141.357 108.562 140.013 108.568 138.526C108.574 137.04 108.568 135.696 108.544 134.723C108.544 134.243 108.544 133.851 108.525 133.568C108.525 133.441 108.525 133.337 108.525 133.264C108.524 133.227 108.525 133.189 108.528 133.152Z" fill="#161B46"/>
<path d="M108.033 140.752C107.909 140.016 107.612 139.32 107.166 138.721C106.72 138.123 106.138 137.639 105.467 137.311C105.124 137.147 104.677 137.04 104.397 137.293C104.118 137.545 104.178 138.004 104.315 138.36C104.616 139.093 105.128 139.721 105.785 140.165C106.442 140.608 107.216 140.848 108.009 140.852" fill="#EAF3F9"/>
<path d="M105.632 138.453C105.708 138.476 105.782 138.508 105.851 138.547C105.934 138.586 106.016 138.63 106.094 138.678C106.199 138.737 106.3 138.802 106.398 138.872C106.523 138.956 106.642 139.046 106.757 139.143C106.89 139.251 107.017 139.366 107.137 139.489C107.411 139.765 107.653 140.071 107.857 140.401C108.059 140.74 108.219 141.101 108.335 141.478C108.428 141.785 108.489 142.1 108.517 142.42C108.529 142.542 108.534 142.665 108.532 142.788C108.539 142.881 108.539 142.974 108.532 143.067C108.531 143.146 108.522 143.225 108.505 143.302C108.484 143.302 108.52 142.964 108.459 142.426C108.445 142.28 108.421 142.135 108.389 141.991C108.356 141.826 108.314 141.662 108.262 141.502C108.143 141.134 107.984 140.78 107.788 140.447C107.586 140.119 107.351 139.813 107.085 139.535C106.958 139.41 106.839 139.289 106.714 139.188C106.604 139.091 106.488 139 106.368 138.915C105.933 138.623 105.623 138.468 105.632 138.453Z" fill="#161B46"/>
<path d="M10.2403 131.807C10.5512 131.87 10.8462 131.994 11.1075 132.174C11.3688 132.354 11.5908 132.585 11.7603 132.853C12.0966 133.391 12.3046 134 12.3683 134.631C12.5294 135.847 12.1585 137.2 11.6721 138.322C10.4561 137.714 9.8481 136.249 9.59578 135.492C9.18234 134.297 9.1641 131.883 10.2403 131.807Z" fill="#EAF3F9"/>
<path d="M13.3087 139.98C13.1574 139.66 13.0932 139.305 13.1225 138.953C13.1519 138.6 13.2738 138.261 13.4759 137.97C13.6835 137.684 13.9461 137.441 14.2482 137.257C14.5504 137.073 14.8862 136.95 15.2361 136.897C15.3944 136.855 15.56 136.848 15.7213 136.877C15.8825 136.906 16.0355 136.97 16.1694 137.064C16.2779 137.172 16.356 137.307 16.3955 137.455C16.435 137.603 16.4346 137.759 16.3943 137.906C16.306 138.201 16.1425 138.467 15.9201 138.679C15.1966 139.433 14.3545 140.028 13.3087 139.98Z" fill="#EAF3F9"/>
<path d="M12.9419 143.914C12.9252 143.831 12.9161 143.746 12.9145 143.662C12.9145 143.485 12.8902 143.254 12.872 142.978C12.8006 142.221 12.853 141.458 13.027 140.719C13.2119 139.976 13.5918 139.296 14.1275 138.749C14.2917 138.586 14.4743 138.444 14.6717 138.323C14.7416 138.281 14.7993 138.257 14.8389 138.235C14.8784 138.214 14.8966 138.208 14.8997 138.211C14.6375 138.378 14.3939 138.573 14.1731 138.792C13.6582 139.344 13.293 140.019 13.1121 140.752C12.9426 141.484 12.8832 142.237 12.9358 142.987C12.9358 143.276 12.951 143.513 12.951 143.674C12.955 143.754 12.9519 143.834 12.9419 143.914Z" fill="#161B46"/>
<path d="M10.416 133.645C10.4315 133.678 10.4447 133.713 10.4555 133.748C10.4798 133.824 10.5102 133.924 10.5497 134.052C10.6288 134.313 10.7382 134.693 10.872 135.162C11.1395 136.098 11.48 137.396 11.8448 138.84C12.2096 140.284 12.4893 141.6 12.6869 142.552C12.7841 143.029 12.8601 143.418 12.9088 143.686C12.9331 143.81 12.9513 143.914 12.9665 143.99C12.9692 144.026 12.9692 144.063 12.9665 144.099C12.9535 144.065 12.9434 144.029 12.9361 143.993L12.8632 143.689C12.8024 143.412 12.7173 143.029 12.6109 142.564C12.3981 141.612 12.1001 140.302 11.7445 138.858C11.3888 137.414 11.0513 136.122 10.799 135.174C10.6774 134.712 10.5771 134.335 10.495 134.061C10.4616 133.936 10.4373 133.833 10.416 133.757C10.4129 133.72 10.4129 133.682 10.416 133.645Z" fill="#161B46"/>
<path d="M11.7716 141.126C11.4732 140.441 11.0162 139.838 10.4384 139.365C9.86064 138.893 9.17867 138.565 8.44889 138.408C8.07801 138.332 7.61897 138.338 7.40617 138.651C7.19337 138.964 7.36969 139.396 7.58857 139.706C8.05822 140.344 8.70641 140.829 9.45139 141.1C10.1964 141.37 11.0048 141.414 11.7746 141.226" fill="#EAF3F9"/>
<path d="M8.89058 139.487C8.96892 139.496 9.04626 139.512 9.12162 139.536C9.21199 139.553 9.30131 139.575 9.38914 139.603C9.50859 139.635 9.62629 139.674 9.74178 139.718C9.88169 139.768 10.0187 139.826 10.1522 139.891C10.3074 139.964 10.4587 140.045 10.6051 140.135C11.282 140.543 11.8488 141.111 12.2559 141.788C12.3426 141.936 12.4217 142.088 12.493 142.244C12.5629 142.39 12.6115 142.53 12.6602 142.661C12.7012 142.776 12.7357 142.894 12.7635 143.013C12.7907 143.102 12.811 143.192 12.8243 143.284C12.8436 143.362 12.8538 143.441 12.8547 143.521C12.8365 143.521 12.7879 143.19 12.5994 142.682C12.5492 142.543 12.4914 142.407 12.4261 142.275C12.3623 142.132 12.2741 141.971 12.1859 141.831C11.9791 141.503 11.7387 141.197 11.4685 140.919C11.1909 140.648 10.8852 140.407 10.5565 140.201C10.4045 140.11 10.2525 140.022 10.1157 139.955C9.98431 139.887 9.84934 139.826 9.71138 139.773C9.2189 139.566 8.8845 139.505 8.89058 139.487Z" fill="#161B46"/>
</svg>
