<svg width="178" height="24" viewBox="0 0 178 24" fill="none" xmlns="http://www.w3.org/2000/svg">
<path d="M2.68599 14.7624C1.74018 15.3573 0.839269 15.8774 0 16.3298V11.3647C0.837637 12.4765 1.73446 13.618 2.68599 14.7624Z" fill="#243665"/>
<path d="M11.9081 23.9999H4.85472C3.75706 23.9999 2.74348 23.6345 1.92993 23.02C3.49417 21.6621 4.94493 20.245 6.28711 18.8054C8.03709 20.6329 9.91769 22.3986 11.9081 23.9999Z" fill="#243665"/>
<path d="M24 4.85561V19.1444C24 20.2422 23.6359 21.256 23.0191 22.0697C19.7033 21.149 14.9665 19.2497 9.29077 15.336C14.1639 9.27967 17.2026 3.31192 18.6897 0H19.1452C21.8272 0 24 2.17488 24 4.85561Z" fill="#00AEEF"/>
<path fill-rule="evenodd" clip-rule="evenodd" d="M0 7.69801C1.97612 9.58873 3.88938 11.2463 5.72344 12.6957C9.65772 9.80144 14.0431 5.70604 18.0349 0H4.85478C2.17288 0 0 2.17488 0 4.85561V7.69801ZM6.90179 8.39256C6.90179 9.2176 6.23308 9.88643 5.40817 9.88643C4.58327 9.88643 3.91455 9.2176 3.91455 8.39256C3.91455 7.56751 4.58327 6.89868 5.40817 6.89868C6.23308 6.89868 6.90179 7.56751 6.90179 8.39256Z" fill="#00ACE9"/>
<path d="M32 20.0042V5.08521L38.9222 12.3172L45.8443 5.08521V20.0042H43.3562V11.0731L38.9222 15.7541L34.4857 11.0707V20.0017H32V20.0042Z" fill="#161B46"/>
<path d="M52.9093 20.0035V14.3471L48.0178 5.87109H50.7746L54.1534 12.1083L57.5322 5.87109H60.2889L55.3974 14.3471V20.0035H52.9093Z" fill="#161B46"/>
<path d="M71.27 11.6726V5.87109H73.7557V20.0035H71.27V14.0567H64.9505V20.0035H62.4648V5.87109H64.9505V11.6726H71.27Z" fill="#161B46"/>
<path d="M87.0603 17.6412V20.0035H77.4855V5.87109H86.9151V8.25512H79.9736V11.6751H85.8163V14.0591H79.9736V17.6436H87.0603V17.6412Z" fill="#161B46"/>
<path d="M94.6239 5L100.943 20.0037H98.2084L97.1096 17.1428H92.1358L91.037 20.0037H88.302L94.6239 5ZM96.2819 14.904L94.6239 10.6563L92.966 14.904H96.2819Z" fill="#161B46"/>
<path d="M105.69 17.6412H112.258V20.0035H103.223V5.87109H105.69V17.6412Z" fill="#161B46"/>
<path d="M121.376 8.2528H117.564V20.0011H115.078V8.2528H111.266V5.86877H121.378V8.2528H121.376Z" fill="#161B46"/>
<path d="M132.567 11.6726V5.87109H135.053V20.0035H132.567V14.0567H126.248V20.0035H123.762V5.87109H126.248V11.6726H132.567Z" fill="#161B46"/>
<path d="M148.44 6.34553V8.95707L148.005 8.68842C147.818 8.58434 147.404 8.43911 146.802 8.25275C146.201 8.06638 145.599 7.98409 144.979 7.98409C143.716 7.98409 142.639 8.4609 141.726 9.43387C140.814 10.3875 140.359 11.5468 140.359 12.9361C140.359 14.3254 140.814 15.4847 141.707 16.4577C142.597 17.4113 143.675 17.8881 144.919 17.8881C145.645 17.8881 146.308 17.784 146.927 17.5565C147.569 17.329 148.026 17.0797 148.295 16.8522L148.709 16.5206V19.2967L148.273 19.5654C148.087 19.6695 147.673 19.7929 147.01 19.9599C146.368 20.1245 145.662 20.2092 144.916 20.2092C142.885 20.2092 141.206 19.5049 139.86 18.0963C138.512 16.6876 137.851 14.9668 137.851 12.9167C137.851 10.9079 138.556 9.18701 139.945 7.77837C141.334 6.36973 143.011 5.66541 144.979 5.66541C146.305 5.66541 147.591 5.93407 148.087 6.16159L148.44 6.34553Z" fill="#161B46"/>
<path d="M162.657 7.77614C164.088 9.18478 164.811 10.9056 164.811 12.9145C164.811 14.9234 164.085 16.6443 162.657 18.0747C161.227 19.5051 159.508 20.2094 157.456 20.2094C155.447 20.2094 153.704 19.5051 152.276 18.0747C150.846 16.6443 150.122 14.9258 150.122 12.9145C150.122 10.9032 150.848 9.20414 152.276 7.79551C153.707 6.36509 155.447 5.66077 157.456 5.66077C159.506 5.66319 161.227 6.3675 162.657 7.77614ZM160.895 16.4167C161.868 15.4438 162.345 14.2626 162.345 12.9145C162.345 11.5688 161.868 10.407 160.895 9.43407C159.942 8.46109 158.802 7.98429 157.456 7.98429C156.108 7.98429 154.97 8.46109 154.017 9.43407C153.063 10.407 152.586 11.5688 152.586 12.9145C152.586 14.2626 153.063 15.4438 154.017 16.4167C154.99 17.3897 156.13 17.8883 157.456 17.8883C158.802 17.8883 159.942 17.3921 160.895 16.4167Z" fill="#161B46"/>
<path d="M176.272 13.4952C175.422 14.3447 174.282 14.7804 172.852 14.7804H170.095V20.0035H167.609V5.87109H172.852C174.301 5.87109 175.441 6.30675 176.272 7.15629C177.121 8.00583 177.535 9.04174 177.535 10.3052C177.535 11.5686 177.121 12.6456 176.272 13.4952ZM170.095 8.18978V12.4375H172.83C174.219 12.4375 175.088 11.6291 175.088 10.3245C175.088 9.06109 174.217 8.18978 172.83 8.18978H170.095Z" fill="#161B46"/>
</svg>
